<svg width="191" height="226" viewBox="0 0 191 226" fill="none" xmlns="http://www.w3.org/2000/svg">
<path d="M144.021 35.5067C158.312 41.3467 172.379 51.0133 179.505 64.7467C186.911 79 187.512 95.7068 185.481 111.32C182.929 130.947 176.5 149.933 170.179 168.6C164.592 185.112 156.901 203.032 143.184 214.453C138.445 218.397 132.641 221.616 126.295 220.571C121.116 219.719 116.744 216.62 112.523 213.699C108.327 210.795 103.864 207.608 98.5412 207.729H92.7626C87.4412 207.608 82.9786 210.795 78.7826 213.699C74.5612 216.62 70.1879 219.719 65.0106 220.571C58.6626 221.616 52.8599 218.397 48.1212 214.453C34.4026 203.032 26.7132 185.112 21.1252 168.6C14.8052 149.933 8.37454 130.947 5.82254 111.32C3.79188 95.7068 4.39455 79 11.7986 64.7467C18.9252 51.0133 32.4986 39.9467 47.2826 35.5067C75.2812 27.0933 80.1399 49.7601 95.0879 49.7601C111.885 49.7601 118.687 25.1467 144.021 35.5067" fill="#EC1D27"/>
<path d="M98.8386 203.237C105.303 203.237 110.331 206.72 114.768 209.793L115.396 210.229C119.292 212.927 122.972 215.473 127.023 216.141C131.067 216.805 135.355 215.129 140.312 211.003C153.613 199.929 160.988 181.76 165.927 167.16C172.137 148.813 178.537 129.907 181.029 110.747C183.329 93.0533 181.476 78.28 175.521 66.8133C169.749 55.6933 157.96 46.0534 142.323 39.6534C138.685 38.1734 135.42 37.4534 132.341 37.4534C125.364 37.4534 120.253 41.3334 114.844 45.44C109.148 49.7734 103.257 54.2534 95.0879 54.2534C87.8093 54.2534 82.6746 50.2267 77.7092 46.3334C72.3226 42.1067 67.2346 38.1201 58.8559 38.1201C55.7479 38.1201 52.2893 38.6934 48.5746 39.8001C34.8586 43.9201 22.2933 54.28 15.7826 66.8133C9.82793 78.28 7.97459 93.0533 10.2746 110.747C12.7666 129.907 19.1692 148.827 25.3599 167.107C30.3172 181.76 37.6919 199.929 50.9933 211.003C55.9506 215.131 60.2439 216.807 64.2812 216.141C68.3319 215.475 72.0092 212.928 75.9039 210.232L76.5386 209.792C80.9746 206.72 86.0026 203.237 92.4653 203.237L92.8106 203.241H98.4933L98.8386 203.237ZM128.733 225.259C127.675 225.26 126.608 225.172 125.564 225C119.521 224.005 114.615 220.608 110.285 217.611L109.656 217.175C105.975 214.625 102.496 212.216 98.8386 212.216L98.6439 212.217L98.5413 212.22H92.7626L92.6599 212.217L92.4653 212.216C88.8079 212.216 85.3319 214.624 81.6506 217.173L81.0146 217.613C76.6879 220.609 71.7812 224.005 65.7399 225C64.6972 225.172 63.6306 225.259 62.5719 225.259C56.8613 225.26 51.1946 222.853 45.2493 217.903C30.2213 205.392 22.1906 185.753 16.8733 170.04C10.5253 151.293 3.97725 131.947 1.37192 111.893C-1.16941 92.3601 0.998595 75.8001 7.81459 62.6667C15.4039 48.0534 30.0319 36.0001 45.9906 31.2001C50.5439 29.8401 54.8732 29.1467 58.8559 29.1467C70.3346 29.1467 77.4946 34.7601 83.2493 39.2667C87.5293 42.6267 90.9093 45.28 95.0879 45.28C100.233 45.28 104.485 42.0401 109.409 38.2934C115.469 33.6934 122.337 28.4667 132.341 28.4667C136.608 28.4667 140.984 29.4133 145.721 31.3467C163.325 38.5467 176.737 49.6667 183.489 62.6667C190.307 75.8001 192.473 92.3601 189.933 111.893C187.327 131.947 180.781 151.28 174.451 169.987C169.115 185.753 161.084 205.392 146.056 217.903C140.111 222.852 134.444 225.259 128.733 225.259" fill="#211D1D"/>
<path d="M95.0639 65.4133L94.7706 65.4C92.3199 65.24 90.4546 63.1467 90.5759 60.6934C90.5759 60.4801 90.548 59.8133 90.524 59.2133C89.2706 29.4133 96.0626 9.70671 110.712 0.666712C112.821 -0.626621 115.588 0.0267121 116.889 2.13338C118.192 4.24005 117.537 7.01343 115.427 8.3201C100.881 17.2934 98.7333 40.7467 99.4946 58.84C99.5453 60.08 99.5719 60.6933 99.5399 61.2133C99.3866 63.5867 97.4119 65.4133 95.0639 65.4133" fill="#211D1D"/>
<path d="M30.9039 147.213C29.0759 147.213 27.3586 146.093 26.6906 144.28C19.2679 124.107 12.9866 94.9199 25.2093 70.4799C32.7159 55.4666 43.6679 49.4266 44.1306 49.1733C46.3106 48 49.0346 48.8133 50.2133 51C51.388 53.1733 50.5813 55.8933 48.4133 57.0666C48.2346 57.1733 39.1373 62.3599 32.988 75.0133C24.716 92.0266 25.4519 114.907 35.1173 141.173C35.9733 143.507 34.7799 146.08 32.4533 146.933C31.9426 147.12 31.4186 147.213 30.9039 147.213" fill="white"/>
<path d="M42.2626 157.2C42.2626 154.24 39.8639 151.84 36.9039 151.84C33.9439 151.84 31.5439 154.24 31.5439 157.2C31.5439 160.16 33.9439 162.56 36.9039 162.56C39.8639 162.56 42.2626 160.16 42.2626 157.2Z" fill="white"/>
</svg>
