<svg width="194" height="244" viewBox="0 0 194 244" fill="none" xmlns="http://www.w3.org/2000/svg">
<path d="M188.885 150.201C188.885 105.657 162.14 41.2186 130.387 9.64264C114.665 -5.99202 108.637 19.02 96.7773 19.02C84.5706 19.02 78.9706 -6.19865 62.2599 10.4187C30.5733 41.9294 4.66925 106.052 4.66925 150.201C4.66925 208.288 45.9079 239.196 96.7773 239.196C147.647 239.196 188.885 208.288 188.885 150.201" fill="#2EAB48"/>
<path d="M72.9066 9.24133C70.8519 9.24133 68.3346 10.708 65.4252 13.6027C34.9252 43.932 9.15858 106.487 9.15858 150.201C9.15858 176.383 17.9719 198.148 34.6479 213.143C50.1133 227.048 72.1773 234.707 96.7773 234.707C121.376 234.707 143.441 227.048 158.905 213.143C175.581 198.148 184.396 176.383 184.396 150.201C184.396 106.556 158.213 43.6453 127.223 12.8267C124.663 10.2813 122.433 8.99068 120.595 8.99068C117.857 8.99068 114.901 11.904 111.772 14.9866C107.719 18.9826 103.124 23.5093 96.7773 23.5093C90.3706 23.5093 85.7933 19.0533 81.7546 15.1213C78.6466 12.0973 75.7132 9.24133 72.9066 9.24133V9.24133ZM96.7773 243.684C69.9573 243.684 45.7613 235.209 28.6453 219.819C10.0226 203.073 0.179932 179 0.179932 150.201C0.179932 128.139 6.30525 101.031 17.4279 73.8693C28.6519 46.4573 43.4492 22.7933 59.0946 7.23599C63.8119 2.54399 68.3306 0.262685 72.9066 0.262685C79.3612 0.262685 83.9599 4.73868 88.0159 8.68801C91.1039 11.6933 94.0186 14.5307 96.7773 14.5307C99.4426 14.5307 102.371 11.6466 105.471 8.59198C109.551 4.57065 114.177 0.0133365 120.595 0.0133365C124.952 0.0133365 129.191 2.12135 133.552 6.46002C165.979 38.7067 193.375 104.532 193.375 150.201C193.375 179 183.531 203.073 164.909 219.819C147.793 235.209 123.597 243.684 96.7773 243.684" fill="#211D1D"/>
<path d="M169.705 144.297C169.705 109.028 148.529 58.0079 123.389 33.0066C110.94 20.6279 106.168 40.432 96.7773 40.432C87.112 40.432 82.6786 20.464 69.4466 33.6213C44.3586 58.5693 23.848 109.341 23.848 144.297C23.848 190.289 56.5 214.761 96.7773 214.761C137.055 214.761 169.705 190.289 169.705 144.297" fill="#B7DE38"/>
<path d="M131.06 133.632C131.06 113.901 115.716 79.2079 96.7853 79.2079C77.8519 79.2079 62.4946 113.901 62.4946 133.632C62.4946 153.363 77.8519 169.361 96.7853 169.361C115.716 169.361 131.06 153.363 131.06 133.632Z" fill="#B0771F"/>
<path d="M73.9092 131.74L73.6772 131.729C72.2666 131.604 71.2252 130.359 71.3506 128.947C73.8626 100.756 87.9826 93.3867 88.5826 93.0867C89.8479 92.4533 91.3906 92.9667 92.0252 94.2334C92.6546 95.4947 92.1492 97.028 90.8946 97.6667C90.6679 97.788 78.6866 104.428 76.4612 129.403C76.3426 130.736 75.2225 131.74 73.9092 131.74" fill="white"/>
<path d="M20.1133 115.417C19.94 115.417 19.764 115.393 19.5906 115.345C18.568 115.057 17.972 113.995 18.2586 112.972C27.6146 79.7374 38.3173 58.2254 45.6493 46.0307C46.1973 45.12 47.38 44.8254 48.2906 45.3734C49.2013 45.9214 49.4946 47.1027 48.9479 48.0134C41.7373 60.0067 31.2026 81.1921 21.964 114.013C21.724 114.863 20.952 115.417 20.1133 115.417" fill="white"/>
<path d="M20.9586 121.8C20.9586 120.232 19.6879 118.961 18.1212 118.961C16.5532 118.961 15.2826 120.232 15.2826 121.8C15.2826 123.367 16.5532 124.639 18.1212 124.639C19.6879 124.639 20.9586 123.367 20.9586 121.8Z" fill="white"/>
</svg>
