<svg width="250" height="162" viewBox="0 0 250 162" fill="none" xmlns="http://www.w3.org/2000/svg">
<path d="M205.14 14.1467C191.133 28.6067 165.685 37.996 124.733 38.3387C83.7799 37.996 58.3319 28.6067 44.3253 14.1467C23.4293 -7.42796 7.14795 17.892 7.14795 17.892L23.8546 86.484L59.6786 123.287L117.893 132.171L124.733 131.127L131.572 132.171L189.787 123.287L225.611 86.484L242.317 17.892C242.317 17.892 226.037 -7.42796 205.14 14.1467Z" fill="#FABF0C"/>
<path d="M124.732 126.637C124.96 126.637 125.185 126.655 125.411 126.689L131.572 127.629L187.62 119.076L221.539 84.2306L237.461 18.864C235.181 16.004 229.495 9.93063 222.321 9.93063C217.777 9.93063 213.081 12.4 208.364 17.2693C192.256 33.8986 164.132 42.4973 124.771 42.828H124.695C85.3332 42.4973 57.2079 33.8986 41.1012 17.2693C36.3839 12.4 31.6879 9.93063 27.1439 9.93063C20.0079 9.93063 14.2959 16.012 12.0066 18.8693L27.9266 84.232L61.8452 119.076L117.893 127.629L124.056 126.689C124.28 126.655 124.507 126.637 124.732 126.637ZM131.572 136.66C131.345 136.66 131.12 136.643 130.895 136.609L124.732 135.668L118.571 136.609C118.123 136.677 117.665 136.679 117.216 136.609L59.0012 127.725C58.0359 127.577 57.1439 127.119 56.4626 126.419L20.6386 89.616C20.0786 89.0413 19.6839 88.3253 19.4932 87.5466L2.78655 18.9547C2.49588 17.76 2.7079 16.4987 3.3719 15.4653C3.75323 14.872 12.8666 0.951986 27.1439 0.951986C34.2119 0.951986 41.0772 4.33999 47.5505 11.024C61.9172 25.856 87.8866 33.5346 124.732 33.8493C161.579 33.5346 187.548 25.856 201.915 11.024C208.388 4.33999 215.255 0.951986 222.321 0.951986C236.597 0.951986 245.713 14.872 246.093 15.464C246.759 16.4986 246.971 17.76 246.679 18.9547L229.972 87.5466C229.783 88.3253 229.387 89.0413 228.827 89.616L193.003 126.419C192.321 127.119 191.431 127.577 190.464 127.725L132.249 136.609C132.025 136.643 131.799 136.66 131.572 136.66Z" fill="#211D1D"/>
<path d="M114.985 139.651C114.985 137.544 113.277 135.837 111.171 135.837C109.064 135.837 107.356 137.544 107.356 139.651C107.356 141.757 109.064 143.465 111.171 143.465C113.277 143.465 114.985 141.757 114.985 139.651Z" fill="white"/>
<path d="M124.781 110.371C66.7839 110.371 18.3906 70.6773 7.14793 17.892C5.53326 25.4747 4.6839 33.3266 4.6839 41.3706C4.6839 105.411 58.4532 157.325 124.781 157.325C191.108 157.325 244.877 105.411 244.877 41.3706C244.877 33.3266 244.028 25.4747 242.413 17.892C231.171 70.6773 182.777 110.371 124.781 110.371" fill="#B7DE38"/>
<path d="M9.19058 39.3919C9.17991 40.0506 9.17326 40.7106 9.17326 41.3693C9.17326 102.833 61.0346 152.837 124.781 152.837C188.527 152.837 240.388 102.833 240.388 41.3693C240.388 40.7106 240.381 40.0506 240.371 39.3919C232.617 57.9519 220.096 74.5652 203.927 87.4372C181.713 105.121 153.605 114.86 124.781 114.86C95.9559 114.86 67.8479 105.121 45.6346 87.4372C29.4653 74.5652 16.9439 57.9519 9.19058 39.3919ZM124.781 161.815C56.0839 161.815 0.19458 107.784 0.19458 41.3693C0.19458 33.1533 1.05724 24.94 2.75724 16.9573C3.19858 14.8853 5.02927 13.4026 7.14793 13.4026C9.2666 13.4026 11.0973 14.8853 11.5386 16.9573C16.8079 41.6973 30.9026 64.2333 51.2266 80.4133C71.8572 96.8359 97.9786 105.881 124.781 105.881C151.583 105.881 177.704 96.8359 198.335 80.4133C218.659 64.2333 232.753 41.6973 238.023 16.9573C238.464 14.8853 240.293 13.4026 242.413 13.4026C244.532 13.4026 246.363 14.884 246.804 16.9573C248.504 24.94 249.367 33.1533 249.367 41.3693C249.367 107.784 193.477 161.815 124.781 161.815" fill="#211D1D"/>
<path d="M124.781 110.371C66.7839 110.371 18.3906 70.6773 7.14793 17.892C5.53326 25.4747 4.6839 33.3266 4.6839 41.3706C4.6839 105.411 58.4532 157.325 124.781 157.325C191.108 157.325 244.877 105.411 244.877 41.3706C244.877 33.3266 244.028 25.4747 242.413 17.892C231.171 70.6773 182.777 110.371 124.781 110.371" fill="#B7DE38"/>
<path d="M9.19058 39.3919C9.17991 40.0506 9.17326 40.7106 9.17326 41.3693C9.17326 102.833 61.0346 152.837 124.781 152.837C188.527 152.837 240.388 102.833 240.388 41.3693C240.388 40.7106 240.381 40.0506 240.371 39.3919C232.617 57.9519 220.096 74.5652 203.927 87.4372C181.713 105.121 153.605 114.86 124.781 114.86C95.9559 114.86 67.8479 105.121 45.6346 87.4372C29.4653 74.5652 16.9439 57.9519 9.19058 39.3919ZM124.781 161.815C56.0839 161.815 0.19458 107.784 0.19458 41.3693C0.19458 33.1533 1.05724 24.94 2.75724 16.9573C3.19858 14.8853 5.02927 13.4026 7.14793 13.4026C9.2666 13.4026 11.0973 14.8853 11.5386 16.9573C16.8079 41.6973 30.9026 64.2333 51.2266 80.4133C71.8572 96.8359 97.9786 105.881 124.781 105.881C151.583 105.881 177.704 96.8359 198.335 80.4133C218.659 64.2333 232.753 41.6973 238.023 16.9573C238.464 14.8853 240.293 13.4026 242.413 13.4026C244.532 13.4026 246.363 14.884 246.804 16.9573C248.504 24.94 249.367 33.1533 249.367 41.3693C249.367 107.784 193.477 161.815 124.781 161.815" fill="#211D1D"/>
<path d="M97.2906 141.079C97.0506 141.079 96.808 141.052 96.5653 140.996C62.1293 133.043 33.7199 109.223 20.5693 77.2773C19.8959 75.6386 20.6759 73.7653 22.3146 73.0907C23.9533 72.4187 25.8266 73.1986 26.4999 74.836C38.8613 104.864 65.5932 127.26 98.0092 134.747C99.7346 135.145 100.809 136.867 100.412 138.593C100.069 140.076 98.7493 141.079 97.2906 141.079" fill="white"/>
</svg>
