<svg width="187" height="268" viewBox="0 0 187 268" fill="none" xmlns="http://www.w3.org/2000/svg">
<path d="M122.901 233.012C122.901 216.708 109.684 203.491 93.38 203.491C77.076 203.491 63.8586 216.708 63.8586 233.012C63.8586 249.316 77.076 262.532 93.38 262.532C109.684 262.532 122.901 249.316 122.901 233.012Z" fill="#90175F"/>
<path d="M93.3786 207.98C79.5759 207.98 68.3466 219.208 68.3466 233.012C68.3466 246.813 79.5759 258.043 93.3786 258.043C107.183 258.043 118.412 246.813 118.412 233.012C118.412 219.208 107.183 207.98 93.3786 207.98ZM93.3786 267.021C74.6252 267.021 59.3693 251.764 59.3693 233.012C59.3693 214.257 74.6252 199.001 93.3786 199.001C112.132 199.001 127.389 214.257 127.389 233.012C127.389 251.764 112.132 267.021 93.3786 267.021Z" fill="#211D1D"/>
<path d="M80.4893 246.363C79.8586 246.363 79.2307 246.097 78.788 245.584C75.7773 242.092 74.1187 237.627 74.1187 233.012C74.1187 229.343 75.1546 225.776 77.1133 222.693C77.7786 221.648 79.1639 221.337 80.2119 222.003C81.2573 222.668 81.5666 224.056 80.9026 225.101C79.4013 227.463 78.608 230.199 78.608 233.012C78.608 236.551 79.88 239.975 82.188 242.652C82.9973 243.591 82.892 245.008 81.9533 245.817C81.5293 246.183 81.008 246.363 80.4893 246.363" fill="white"/>
<path d="M93.38 192.64C93.38 176.333 80.1626 163.12 63.8586 163.12C47.5533 163.12 34.3373 176.333 34.3373 192.64C34.3373 208.941 47.5533 222.159 63.8586 222.159C80.1626 222.159 93.38 208.941 93.38 192.64Z" fill="#90175F"/>
<path d="M63.8586 167.6C50.0559 167.6 38.8266 178.84 38.8266 192.64C38.8266 206.44 50.0559 217.669 63.8586 217.669C77.6612 217.669 88.8892 206.44 88.8892 192.64C88.8892 178.84 77.6612 167.6 63.8586 167.6ZM63.8586 226.648C45.1052 226.648 29.8479 211.391 29.8479 192.64C29.8479 173.88 45.1052 158.627 63.8586 158.627C82.6106 158.627 97.8679 173.88 97.8679 192.64C97.8679 211.391 82.6106 226.648 63.8586 226.648Z" fill="#211D1D"/>
<path d="M47.0466 202.891C46.208 202.891 45.404 202.419 45.02 201.612C43.676 198.799 42.9946 195.773 42.9946 192.64C42.9946 186.693 45.5386 181.027 49.972 177.067C50.8973 176.24 52.316 176.32 53.1413 177.24C53.9666 178.173 53.8853 179.587 52.9613 180.413C49.48 183.52 47.484 187.973 47.484 192.64C47.484 195.107 48.0173 197.473 49.0706 199.679C49.6039 200.797 49.1306 202.137 48.0119 202.671C47.6999 202.82 47.3706 202.891 47.0466 202.891" fill="white"/>
<path d="M152.421 187.64C152.421 168.571 139.205 153.12 122.901 153.12C106.596 153.12 93.38 168.571 93.38 187.64C93.38 206.703 106.596 222.159 122.901 222.159C139.205 222.159 152.421 206.703 152.421 187.64Z" fill="#90175F"/>
<path d="M122.901 158.919C109.097 158.919 97.8679 171.812 97.8679 187.64C97.8679 203.469 109.097 216.349 122.901 216.349C136.704 216.349 147.932 203.469 147.932 187.64C147.932 171.812 136.704 158.919 122.901 158.919ZM122.901 226.648C104.147 226.648 88.8893 209.148 88.8893 187.64C88.8893 166.122 104.147 148.627 122.901 148.627C141.655 148.627 156.911 166.122 156.911 187.64C156.911 209.148 141.655 226.648 122.901 226.648Z" fill="#211D1D"/>
<path d="M63.6027 108.333C63.3627 108.333 63.1186 108.304 62.8733 108.26C60.428 107.819 58.768 105.277 59.1667 102.588C59.2907 101.75 62.248 81.9859 68.1226 59.6793C76.2013 28.9968 85.6053 9.34994 96.076 1.28255C97.4293 0.239229 99.192 0.106977 100.667 0.915185C102.143 1.73809 103.089 3.38392 103.135 5.20606C103.663 26.4399 108.329 84.7337 123.371 99.1786C125.24 100.971 125.436 104.101 123.808 106.159C122.179 108.216 119.343 108.436 117.475 106.643C108.419 97.9442 101.752 78.1211 97.656 47.7031C96.0453 35.7417 95.1587 24.5736 94.6827 16.7266C80.508 37.6519 70.8387 85.2333 68.028 104.175C67.668 106.599 65.764 108.333 63.6027 108.333Z" fill="#211D1D"/>
<path d="M181.943 149.053C181.943 129.985 168.725 114.533 152.421 114.533C136.117 114.533 122.901 129.985 122.901 149.053C122.901 168.122 136.117 183.573 152.421 183.573C168.725 183.573 181.943 168.122 181.943 149.053Z" fill="#90175F"/>
<path d="M152.421 120.332C138.619 120.332 127.389 133.225 127.389 149.053C127.389 164.882 138.619 177.759 152.421 177.759C166.224 177.759 177.453 164.882 177.453 149.053C177.453 133.225 166.224 120.332 152.421 120.332ZM152.421 188.067C133.668 188.067 118.412 170.556 118.412 149.053C118.412 127.536 133.668 110.04 152.421 110.04C171.176 110.04 186.432 127.536 186.432 149.053C186.432 170.556 171.176 188.067 152.421 188.067Z" fill="#211D1D"/>
<path d="M122.901 149.053C122.901 129.985 109.684 114.533 93.38 114.533C77.076 114.533 63.8586 129.985 63.8586 149.053C63.8586 168.122 77.076 183.573 93.38 183.573C109.684 183.573 122.901 168.122 122.901 149.053Z" fill="#90175F"/>
<path d="M93.3786 120.332C79.5759 120.332 68.3466 133.225 68.3466 149.053C68.3466 164.882 79.5759 177.759 93.3786 177.759C107.183 177.759 118.412 164.882 118.412 149.053C118.412 133.225 107.183 120.332 93.3786 120.332ZM93.3786 188.067C74.6252 188.067 59.3693 170.556 59.3693 149.053C59.3693 127.536 74.6252 110.04 93.3786 110.04C112.132 110.04 127.389 127.536 127.389 149.053C127.389 170.556 112.132 188.067 93.3786 188.067Z" fill="#211D1D"/>
<path d="M81.6546 169.493C81.124 169.493 80.5919 169.246 80.1639 168.75C75.9146 163.741 73.4773 156.537 73.4773 148.997C73.4773 141.74 75.7559 134.748 79.7279 129.775C80.6306 128.642 82.0493 128.695 82.9013 129.898C83.7519 131.084 83.7093 132.978 82.808 134.111C79.6866 138.005 77.9666 143.297 77.9666 148.997C77.9666 154.838 79.8546 160.413 83.1466 164.29C84.0733 165.387 84.156 167.263 83.3333 168.502C82.8893 169.157 82.2733 169.493 81.6546 169.493" fill="white"/>
<path d="M113.893 33.8824C104.989 42.1956 101.052 55.3029 105.096 63.1493C109.137 70.9957 119.635 70.6006 128.541 62.2694C137.441 53.9562 137.339 33.0025 137.339 33.0025C137.339 33.0025 122.799 25.5512 113.893 33.8824Z" fill="#81CC29"/>
<path d="M124.713 36.799C121.264 36.799 118.485 37.7092 116.455 39.4794C112.908 42.5981 110.119 46.7452 108.801 50.8586C108.179 52.8142 107.349 56.4556 108.784 59.0686C110.145 61.5636 112.949 61.9177 114.499 61.9177C118.104 61.9177 122.289 60.0633 125.981 56.8265C130.653 52.73 132.148 43.5085 132.625 38.1307C130.56 37.4732 127.689 36.799 124.713 36.799ZM114.499 73.28C108.792 73.28 104.143 70.5322 101.408 65.5422C98.6013 60.4342 98.2613 53.5392 100.477 46.6105C102.463 40.4067 106.319 34.5568 111.333 30.1568C114.897 27.038 119.399 25.4535 124.713 25.4535C132.095 25.4535 138.659 28.5552 138.935 28.6901C140.667 29.533 141.815 31.6236 141.828 33.9669C141.829 34.186 141.843 39.6312 140.649 46.1048C138.948 55.343 135.735 62.0862 131.103 66.149C125.867 70.7513 119.969 73.28 114.499 73.28Z" fill="#211D1D"/>
<path d="M60.6826 36.442C69.5879 44.7726 73.5239 57.8789 69.4799 65.7247C65.4386 73.5526 54.9412 73.1757 46.0346 64.8451C37.1346 56.5145 37.2372 35.5622 37.2372 35.5622C37.2372 35.5622 51.7786 28.1115 60.6826 36.442Z" fill="#81CC29"/>
<path d="M41.9306 40.7077C42.4626 46.625 44.1733 55.5092 48.596 59.3866C52.288 62.6402 56.4733 64.4946 60.0786 64.4946C61.6279 64.4946 64.4307 64.1236 65.7907 61.6455C67.2267 59.0324 66.3973 55.3744 65.7759 53.4357C64.4573 49.3054 61.668 45.1583 58.1226 42.0564C56.0906 40.2694 53.312 39.3591 49.8627 39.3591C46.8853 39.3591 44.0026 40.0503 41.9306 40.7077V40.7077ZM60.0786 75.8401C54.6066 75.8401 48.7106 73.3114 43.4746 68.7091C38.8413 64.6463 35.6293 57.903 33.9267 48.6647C32.732 42.1911 32.7466 36.7628 32.748 36.5268C32.7613 34.1835 33.9093 32.0932 35.6413 31.2672C35.916 31.1323 42.4813 28.0134 49.8627 28.0134C55.1773 28.0134 59.68 29.5981 63.244 32.7337C68.2586 37.1337 72.1133 42.9666 74.0987 49.1704C76.3147 56.0991 75.9746 62.9942 73.1666 68.1191C70.4333 73.0922 65.7839 75.8401 60.0786 75.8401Z" fill="#211D1D"/>
<path d="M63.5973 154.053C63.5973 137.747 50.38 124.533 34.076 124.533C17.772 124.533 4.55469 137.747 4.55469 154.053C4.55469 170.36 17.772 183.573 34.076 183.573C50.38 183.573 63.5973 170.36 63.5973 154.053Z" fill="#90175F"/>
<path d="M34.0759 129.013C20.2733 129.013 9.04395 140.253 9.04395 154.053C9.04395 167.853 20.2733 179.08 34.0759 179.08C47.8786 179.08 59.1079 167.853 59.1079 154.053C59.1079 140.253 47.8786 129.013 34.0759 129.013ZM34.0759 188.067C15.3226 188.067 0.0653076 172.8 0.0653076 154.053C0.0653076 135.293 15.3226 120.04 34.0759 120.04C52.8292 120.04 68.0866 135.293 68.0866 154.053C68.0866 172.8 52.8292 188.067 34.0759 188.067Z" fill="#211D1D"/>
<path d="M22.0679 169.96C21.5412 169.96 21.0132 169.773 20.5866 169.4C16.1719 165.52 13.6399 159.92 13.6399 154.053C13.6399 147.653 16.5519 141.747 21.6293 137.84C22.6119 137.08 24.0213 137.267 24.7773 138.253C25.5333 139.24 25.3479 140.64 24.3666 141.4C20.4026 144.453 18.1293 149.053 18.1293 154.053C18.1293 158.64 20.1052 163 23.5506 166.027C24.4812 166.853 24.5733 168.267 23.7546 169.2C23.3106 169.707 22.6906 169.96 22.0679 169.96" fill="white"/>
<path d="M152.421 120.08C152.421 103.773 139.205 90.56 122.901 90.56C106.596 90.56 93.38 103.773 93.38 120.08C93.38 136.373 106.596 149.6 122.901 149.6C139.205 149.6 152.421 136.373 152.421 120.08Z" fill="#90175F"/>
<path d="M122.901 95.04C109.097 95.04 97.8679 106.28 97.8679 120.08C97.8679 133.88 109.097 145.107 122.901 145.107C136.704 145.107 147.932 133.88 147.932 120.08C147.932 106.28 136.704 95.04 122.901 95.04ZM122.901 154.08C104.147 154.08 88.8893 138.827 88.8893 120.08C88.8893 101.32 104.147 86.0667 122.901 86.0667C141.655 86.0667 156.911 101.32 156.911 120.08C156.911 138.827 141.655 154.08 122.901 154.08Z" fill="#211D1D"/>
<path d="M93.38 120.08C93.38 103.773 80.1626 90.56 63.8586 90.56C47.5533 90.56 34.3373 103.773 34.3373 120.08C34.3373 136.373 47.5533 149.6 63.8586 149.6C80.1626 149.6 93.38 136.373 93.38 120.08Z" fill="#90175F"/>
<path d="M63.8586 95.04C50.0559 95.04 38.8266 106.28 38.8266 120.08C38.8266 133.88 50.0559 145.107 63.8586 145.107C77.6612 145.107 88.8892 133.88 88.8892 120.08C88.8892 106.28 77.6612 95.04 63.8586 95.04ZM63.8586 154.08C45.1052 154.08 29.8479 138.827 29.8479 120.08C29.8479 101.32 45.1052 86.0667 63.8586 86.0667C82.6106 86.0667 97.8679 101.32 97.8679 120.08C97.8679 138.827 82.6106 154.08 63.8586 154.08Z" fill="#211D1D"/>
<path d="M47.8387 131.413C47.0293 131.413 46.2467 130.973 45.8467 130.2C44.2293 127.093 43.3733 123.6 43.3733 120.08C43.3733 116.027 44.4893 112.053 46.6 108.613C47.2493 107.56 48.6333 107.227 49.6866 107.88C50.744 108.533 51.0747 109.907 50.4267 110.973C48.7493 113.707 47.8627 116.853 47.8627 120.08C47.8627 122.92 48.524 125.627 49.828 128.12C50.4 129.227 49.9733 130.587 48.8747 131.16C48.544 131.333 48.188 131.413 47.8387 131.413" fill="white"/>
<path d="M57.236 103.84C57.236 102.067 55.7947 100.613 54.016 100.613C52.2373 100.613 50.796 102.067 50.796 103.84C50.796 105.613 52.2373 107.053 54.016 107.053C55.7947 107.053 57.236 105.613 57.236 103.84Z" fill="white"/>
</svg>
