<svg width="242" height="242" viewBox="0 0 242 242" fill="none" xmlns="http://www.w3.org/2000/svg">
<path d="M236.68 120.963C236.68 56.848 184.707 4.87331 120.587 4.87331C56.4773 4.87331 4.50256 56.848 4.50256 120.963C4.50256 185.077 56.4773 237.052 120.587 237.052C184.707 237.052 236.68 185.077 236.68 120.963Z" fill="#AD7C1D"/>
<path d="M120.587 9.36269C59.056 9.36269 8.99196 59.4267 8.99196 120.963C8.99196 182.5 59.056 232.563 120.587 232.563C182.133 232.563 232.187 182.5 232.187 120.963C232.187 59.4267 182.133 9.36269 120.587 9.36269V9.36269ZM120.587 241.541C54.1053 241.541 0.0131836 187.449 0.0131836 120.963C0.0131836 54.476 54.1053 0.383978 120.587 0.383978C187.08 0.383978 241.173 54.476 241.173 120.963C241.173 187.449 187.08 241.541 120.587 241.541Z" fill="#211D1D"/>
<path d="M221.24 120.669C221.08 65.084 175.88 20.1534 120.293 20.316C64.7066 20.4787 19.7826 65.6707 19.9453 121.256C20.1066 176.843 65.2932 221.772 120.88 221.609C176.467 221.448 221.4 176.255 221.24 120.669" fill="#85CD29"/>
<path d="M172.6 123.233L194.867 120.963L172.6 118.692L194.587 114.489L172.2 114.168L193.747 108.064L171.413 109.696L192.333 101.739L170.24 105.309L190.387 95.5586L168.68 101.041L187.907 89.5706L166.76 96.9253L184.92 83.824L164.493 92.9933L181.44 78.3586L161.893 89.2733L177.493 73.2173L158.973 85.7946L173.12 68.4399L155.76 82.5827L168.333 64.0627L152.28 79.664L163.2 60.1173L148.56 77.0586L157.733 56.636L144.627 74.788L151.987 53.644L140.507 72.8693L146 51.164L136.24 71.316L139.813 49.216L131.853 70.1399L133.493 47.8133L127.387 69.352L127.067 46.9666L122.867 68.956L120.587 46.684L118.32 68.956L114.12 46.9666L113.8 69.352L107.693 47.8133L109.32 70.1399L101.373 49.216L104.933 71.316L95.1867 51.164L100.667 72.8693L89.1999 53.644L96.56 74.788L83.4533 56.636L92.6266 77.0586L77.9867 60.1173L88.9066 79.664L72.8533 64.0627L85.4266 82.5827L68.0666 68.4399L82.2132 85.7946L63.6933 73.2173L79.2933 89.2733L59.7466 78.3586L76.6933 92.9933L56.2653 83.824L74.4132 96.9253L53.2733 89.5706L72.4933 101.041L50.7933 95.5586L70.9466 105.309L48.8453 101.739L69.7733 109.696L47.4427 108.064L68.9867 114.168L46.5959 114.489L68.5867 118.692L46.3132 120.963L68.5867 123.233L46.5959 127.436L68.9867 127.757L47.4427 133.861L69.7733 132.229L48.8453 140.188L70.9466 136.616L50.7933 146.368L72.4933 140.884L53.2733 152.355L74.4132 145L56.2653 158.101L76.6933 148.932L59.7466 163.567L79.2933 152.653L63.6933 168.708L82.2132 156.132L68.0666 173.485L85.4266 159.343L72.8533 177.863L88.9066 162.263L77.9867 181.808L92.6266 164.867L83.4533 185.289L96.56 167.137L89.1999 188.281L100.667 169.056L95.1867 190.761L104.933 170.609L101.373 192.711L109.32 171.785L107.693 194.112L113.8 172.573L114.12 194.959L118.32 172.969L120.587 195.241L122.867 172.969L127.067 194.959L127.387 172.573L133.493 194.112L131.853 171.785L139.813 192.711L136.24 170.609L146 190.761L140.507 169.056L151.987 188.281L144.627 167.137L157.733 185.289L148.56 164.867L163.2 181.808L152.28 162.263L168.333 177.863L155.76 159.343L173.12 173.485L158.973 156.132L177.493 168.708L161.893 152.653L181.44 163.567L164.493 148.932L184.92 158.101L166.76 145L187.907 152.355L168.68 140.884L190.387 146.368L170.24 136.616L192.333 140.188L171.413 132.229L193.747 133.861L172.2 127.757L194.587 127.436L172.6 123.233Z" fill="#68A32F"/>
<path d="M171.613 120.815C171.533 92.6333 148.627 69.8546 120.44 69.9373C92.2665 70.0186 69.4799 92.9306 69.5599 121.112C69.6532 149.292 92.5598 172.071 120.746 171.988C148.92 171.907 171.693 148.995 171.613 120.815Z" fill="#A8DA47"/>
<path d="M41.0494 78.3933C40.7307 78.3933 40.4107 78.3146 40.1133 78.1493C39.1853 77.6306 38.8534 76.46 39.3708 75.532C53.8268 49.6373 74.4533 37.2866 89.2133 31.4853C105.213 25.1946 117.667 25.0373 118.187 25.0346H118.2C119.253 25.0346 120.12 25.8866 120.12 26.9453C120.133 28.0066 119.267 28.8746 118.213 28.8813C118.027 28.8839 105.8 29.0719 90.4667 35.1253C76.3467 40.7053 56.5961 52.5693 42.7308 77.4066C42.3788 78.0386 41.7227 78.3933 41.0494 78.3933" fill="white"/>
<path d="M40.02 84.3813C40.02 82.9866 38.8893 81.8547 37.4933 81.8547C36.0973 81.8547 34.9653 82.9866 34.9653 84.3813C34.9653 85.7773 36.0973 86.9093 37.4933 86.9093C38.8893 86.9093 40.02 85.7773 40.02 84.3813Z" fill="white"/>
<path d="M105.44 86.8894C107.027 84.9494 106.813 82.1467 106.813 82.1467C106.813 82.1467 104.013 82.4894 102.44 84.428C100.853 86.368 100.24 88.4907 101.067 89.1707C101.893 89.8507 103.853 88.828 105.44 86.8894Z" fill="#211D1D"/>
<path d="M125.187 83.352C127.573 84.1347 130.107 82.9226 130.107 82.9226C130.107 82.9226 128.787 80.4413 126.413 79.6586C124.027 78.876 121.827 79.068 121.493 80.088C121.16 81.108 122.813 82.5693 125.187 83.352Z" fill="#211D1D"/>
<path d="M86.16 107.416C87.5734 105.355 87.1334 102.579 87.1334 102.579C87.1334 102.579 84.3734 103.144 82.96 105.205C81.5334 107.265 81.0933 109.431 81.9733 110.041C82.8533 110.652 84.7334 109.476 86.16 107.416" fill="#211D1D"/>
<path d="M144.96 115.305C145.84 112.964 144.747 110.376 144.747 110.376C144.747 110.376 142.213 111.585 141.32 113.928C140.44 116.271 140.533 118.477 141.533 118.859C142.533 119.239 144.067 117.649 144.96 115.305Z" fill="#211D1D"/>
<path d="M104.147 109.731C105.733 107.792 105.507 104.988 105.507 104.988C105.507 104.988 102.72 105.331 101.133 107.271C99.5467 109.209 98.9334 111.333 99.7734 112.012C100.6 112.692 102.56 111.671 104.147 109.731" fill="#211D1D"/>
<path d="M107.52 135.699C109.893 136.523 112.453 135.355 112.453 135.355C112.453 135.355 111.173 132.851 108.8 132.027C106.44 131.203 104.24 131.357 103.88 132.371C103.533 133.384 105.16 134.875 107.52 135.699Z" fill="#211D1D"/>
<path d="M143.693 155.445C144.427 153.052 143.173 150.537 143.173 150.537C143.173 150.537 140.707 151.903 139.973 154.296C139.227 156.689 139.467 158.887 140.493 159.204C141.52 159.521 142.947 157.839 143.693 155.445Z" fill="#211D1D"/>
<path d="M159.24 114.936C156.76 114.6 154.493 116.256 154.493 116.256C154.493 116.256 156.24 118.453 158.72 118.789C161.2 119.124 163.333 118.532 163.48 117.468C163.627 116.404 161.72 115.271 159.24 114.936" fill="#211D1D"/>
<path d="M136.28 134.593C134.693 132.656 131.893 132.317 131.893 132.317C131.893 132.317 131.68 135.12 133.267 137.057C134.853 138.996 136.813 140.015 137.653 139.335C138.48 138.653 137.867 136.531 136.28 134.593Z" fill="#211D1D"/>
<path d="M122.96 153.235C122.733 150.74 120.6 148.901 120.6 148.901C120.6 148.901 118.853 151.105 119.093 153.6C119.32 156.093 120.387 158.033 121.453 157.933C122.52 157.832 123.2 155.729 122.96 153.235Z" fill="#211D1D"/>
<path d="M100.6 155.575C102.467 153.896 102.667 151.092 102.667 151.092C102.667 151.092 99.8534 151.009 98.0001 152.687C96.1334 154.365 95.2134 156.371 95.9334 157.168C96.6534 157.965 98.7468 157.252 100.6 155.575Z" fill="#211D1D"/>
<path d="M87.5332 133.424C89.2265 131.58 89.1731 128.768 89.1731 128.768C89.1731 128.768 86.3598 128.949 84.6665 130.795C82.9732 132.639 82.2399 134.723 83.0265 135.449C83.8265 136.176 85.8398 135.269 87.5332 133.424Z" fill="#211D1D"/>
<path d="M125.733 97.3C123.413 98.2453 122.267 100.813 122.267 100.813C122.267 100.813 124.88 101.847 127.2 100.901C129.52 99.956 131.067 98.3827 130.667 97.3893C130.267 96.3947 128.053 96.3547 125.733 97.3Z" fill="#211D1D"/>
<path d="M146.28 90.7426C143.96 91.6879 142.813 94.2546 142.813 94.2546C142.813 94.2546 145.427 95.2879 147.747 94.3426C150.067 93.3973 151.627 91.8253 151.213 90.8306C150.813 89.8359 148.6 89.7973 146.28 90.7426Z" fill="#211D1D"/>
<path d="M123.613 117.599C122.32 115.449 119.613 114.708 119.613 114.708C119.613 114.708 118.987 117.449 120.267 119.597C121.56 121.747 123.347 123.04 124.267 122.488C125.2 121.936 124.893 119.747 123.613 117.599Z" fill="#211D1D"/>
<path d="M157.2 135.189C155.787 133.123 153.04 132.547 153.04 132.547C153.04 132.547 152.587 135.321 154 137.388C155.413 139.455 157.28 140.637 158.16 140.031C159.053 139.424 158.627 137.256 157.2 135.189Z" fill="#211D1D"/>
</svg>
