<svg width="224" height="224" viewBox="0 0 224 224" fill="none" xmlns="http://www.w3.org/2000/svg">
<path d="M218.641 112.071C218.641 53.0974 170.835 5.29069 111.861 5.29069C52.8878 5.29069 5.08105 53.0974 5.08105 112.071C5.08105 171.044 52.8878 218.851 111.861 218.851C170.835 218.851 218.641 171.044 218.641 112.071" fill="#FADA24"/>
<path d="M111.861 9.7799C55.4586 9.7799 9.57021 55.6679 9.57021 112.071C9.57021 168.475 55.4586 214.363 111.861 214.363C168.265 214.363 214.152 168.475 214.152 112.071C214.152 55.6679 168.265 9.7799 111.861 9.7799ZM111.861 223.341C50.5066 223.341 0.591675 173.425 0.591675 112.071C0.591675 50.7173 50.5066 0.801258 111.861 0.801258C173.216 0.801258 223.131 50.7173 223.131 112.071C223.131 173.425 173.216 223.341 111.861 223.341Z" fill="#211D1D"/>
<path d="M29.3197 66.3921C28.8797 66.3921 28.4327 66.2787 28.0259 66.0401C26.803 65.3241 26.3926 63.7534 27.1083 62.5308C39.5532 41.2841 59.3079 25.5801 82.7346 18.3108C84.0866 17.8934 85.5252 18.6468 85.9452 20.0001C86.3652 21.3534 85.6093 22.7908 84.2559 23.2108C62.0546 30.1001 43.3319 44.9854 31.5359 65.1228C31.0583 65.9388 30.2005 66.3921 29.3197 66.3921" fill="white"/>
<path d="M111.861 39.6226C71.9133 39.6226 39.4133 72.1226 39.4133 112.071C39.4133 152.019 71.9133 184.519 111.861 184.519C151.809 184.519 184.311 152.019 184.311 112.071C184.311 72.1226 151.809 39.6226 111.861 39.6226ZM111.861 193.497C66.9626 193.497 30.4343 156.969 30.4343 112.071C30.4343 67.172 66.9626 30.644 111.861 30.644C156.76 30.644 193.288 67.172 193.288 112.071C193.288 156.969 156.76 193.497 111.861 193.497" fill="#FBEF80"/>
<path d="M184.187 121.397C184.579 118.343 184.78 115.231 184.78 112.071C184.78 108.912 184.579 105.8 184.187 102.745H134.376L169.571 67.5507C165.753 62.6147 161.319 58.1801 156.381 54.3627L121.187 89.556V39.7467C118.133 39.3547 115.02 39.1521 111.861 39.1521C108.703 39.1521 105.589 39.3547 102.536 39.7467V89.556L67.3413 54.3627C62.4053 58.1801 57.9693 62.6147 54.152 67.5507L89.3466 102.745H39.536C39.1453 105.8 38.9426 108.912 38.9426 112.071C38.9426 115.231 39.1453 118.343 39.536 121.397H89.3466L54.152 156.591C57.9693 161.528 62.4053 165.963 67.3413 169.78L102.536 134.585V184.396C105.589 184.788 108.703 184.991 111.861 184.991C115.02 184.991 118.133 184.788 121.187 184.396V134.585L156.381 169.78C161.319 165.963 165.753 161.528 169.571 156.591L134.376 121.397H184.187Z" fill="#FBEF80"/>
<path d="M39.5359 121.397C41.2213 134.536 46.4199 146.591 54.1519 156.591L89.3466 121.397H39.5359Z" fill="#F9DD05"/>
<path d="M156.381 54.3627C146.381 46.6294 134.327 41.4307 121.187 39.7467V89.556L156.381 54.3627Z" fill="#F9DD05"/>
<path d="M67.3413 169.78C77.3413 177.513 89.396 182.712 102.536 184.396V134.585L67.3413 169.78Z" fill="#F9DD05"/>
<path d="M134.376 121.397L169.571 156.591C177.303 146.591 182.501 134.536 184.187 121.397H134.376" fill="#F9DD05"/>
<path d="M54.1519 67.5506C46.4199 77.5519 41.2213 89.6052 39.5359 102.745H89.3466L54.1519 67.5506" fill="#F9DD05"/>
<path d="M102.536 39.7467C89.396 41.4307 77.3413 46.6294 67.3413 54.3627L102.536 89.556V39.7467Z" fill="#F9DD05"/>
<path d="M184.187 102.745C182.501 89.6052 177.303 77.5519 169.571 67.5506L134.376 102.745H184.187Z" fill="#F9DD05"/>
<path d="M121.187 184.396C134.327 182.712 146.381 177.513 156.381 169.78L121.187 134.585V184.396Z" fill="#F9DD05"/>
<path d="M127.016 111.255C127.016 102.413 119.848 95.2454 111.007 95.2454C102.165 95.2454 94.9973 102.413 94.9973 111.255C94.9973 120.097 102.165 127.264 111.007 127.264C119.848 127.264 127.016 120.097 127.016 111.255Z" fill="#F9DD05"/>
<path d="M27.7349 73.8347C27.7349 71.8401 26.1171 70.2215 24.1207 70.2215C22.1254 70.2215 20.5078 71.8401 20.5078 73.8347C20.5078 75.8307 22.1254 77.4495 24.1207 77.4495C26.1171 77.4495 27.7349 75.8307 27.7349 73.8347Z" fill="white"/>
</svg>
