<svg width="200" height="279" viewBox="0 0 200 279" fill="none" xmlns="http://www.w3.org/2000/svg">
<path d="M159.885 49.116C149.013 7.35596 114.152 20.1573 100.032 20.8466C85.9133 20.1573 51.0506 7.35596 40.1786 49.116C28.7533 93 -8.97072 159.213 54.3239 229.946C54.3239 229.946 73.0733 256.667 99.924 260.973V261.013L100.032 260.986L100.141 261.013V260.973C126.991 256.667 145.74 229.946 145.74 229.946C209.035 159.213 171.311 93 159.885 49.116Z" fill="#F1471F"/>
<path d="M76.7133 22.9573C69.0626 22.9573 62.9746 24.5866 58.1013 27.936C51.8226 32.252 47.2533 39.7586 44.5226 50.2466C42.7026 57.236 40.2493 64.7226 37.6506 72.6466C30.6839 93.8933 22.7893 117.973 23.0839 144.12C23.4226 174.227 34.736 201.32 57.6693 226.96C57.7866 227.093 57.8973 227.227 57.9986 227.373C58.172 227.613 75.74 252.186 100.032 256.44C124.324 252.186 141.893 227.613 142.069 227.36C142.168 227.226 142.28 227.08 142.395 226.96C165.328 201.32 176.641 174.227 176.98 144.12C177.275 117.973 169.38 93.8933 162.415 72.648C159.816 64.7226 157.361 57.2373 155.541 50.2466C152.811 39.76 148.243 32.2533 141.964 27.9373C137.089 24.5866 131.001 22.9573 123.352 22.9573C118.067 22.9573 112.901 23.7106 108.344 24.376C105.261 24.8266 102.6 25.216 100.251 25.3293C100.104 25.336 99.9573 25.336 99.8133 25.3293C97.4653 25.216 94.8026 24.8266 91.7199 24.3773C87.1626 23.7106 81.9973 22.9573 76.7133 22.9573V22.9573ZM99.924 265.493C99.476 265.493 99.0333 265.427 98.6106 265.307C71.5733 260.64 52.8693 235.613 50.812 232.76C-4.1107 171.213 15.0906 112.627 29.1186 69.8493C31.6733 62.0613 34.0853 54.7053 35.8346 47.9853C39.1253 35.3466 44.904 26.112 53.0146 20.5373C59.4346 16.124 67.1866 13.9786 76.7133 13.9786C82.6493 13.9786 88.3973 14.8186 93.0173 15.4919C95.7626 15.8933 98.148 16.2413 100.032 16.3506C101.916 16.2413 104.301 15.8933 107.047 15.4919C111.667 14.8186 117.415 13.9786 123.352 13.9786C132.877 13.9786 140.629 16.124 147.049 20.5386C155.16 26.1133 160.94 35.3479 164.231 47.9853C165.98 54.7053 168.392 62.0613 170.945 69.8506C184.973 112.627 204.175 171.213 149.252 232.76C147.193 235.613 128.452 260.693 101.373 265.32C100.949 265.44 100.508 265.493 100.059 265.493H99.924" fill="#211D1D"/>
<path d="M44.0186 238.253C19.7266 208.32 5.76263 178.707 5.37596 144.32C5.04796 115.24 13.7946 88.5626 20.8226 67.128C23.3333 59.4733 25.7039 52.2413 27.3853 45.7839C34.2893 19.2653 51.3466 5.24797 76.7119 5.24797C83.2826 5.24797 89.3786 6.13861 94.2773 6.85328C96.4626 7.17195 98.5413 7.47462 100.032 7.59862C101.523 7.47462 103.601 7.17195 105.787 6.85328C110.685 6.13861 116.781 5.24797 123.352 5.24797C148.717 5.24797 165.775 19.2653 172.679 45.7839C174.36 52.2413 176.732 59.4733 179.241 67.1293C186.269 88.5626 195.016 115.24 194.688 144.32C194.301 178.707 181.659 209.44 156.045 238.253C152.96 242.426 128.536 274.373 100.056 274.373C71.5999 274.373 47.2879 242.28 44.0186 238.253" fill="#2EAB48"/>
<path d="M76.7119 9.73732C53.2866 9.73732 38.1519 22.2467 31.7293 46.916C30.0146 53.5053 27.6226 60.7973 25.0919 68.5173C18.1626 89.648 9.54526 115.933 9.86526 144.267C10.2133 175.24 22.1733 204.213 47.5053 235.426C47.6506 235.613 47.8373 235.84 48.0626 236.12C65.4186 257.893 83.8839 269.88 100.056 269.88C126.321 269.88 149.84 239.093 152.436 235.586L152.689 235.28C177.555 207.293 189.825 177.533 190.2 144.267C190.519 115.933 181.903 89.6506 174.977 68.532C172.444 60.8053 170.052 53.5107 168.335 46.916C161.912 22.2467 146.777 9.73732 123.352 9.73732C117.107 9.73732 111.189 10.6 106.435 11.2946C104.173 11.6253 102.037 11.936 100.403 12.072C100.155 12.092 99.9079 12.092 99.6612 12.072C98.0239 11.936 95.8893 11.6253 93.6306 11.2946C88.8746 10.6 82.9572 9.73732 76.7119 9.73732V9.73732ZM100.056 278.853C81.0959 278.853 60.1373 265.667 41.0426 241.72C40.8373 241.467 40.6666 241.253 40.5333 241.08C13.8573 208.2 1.25858 177.48 0.88658 144.373C0.55058 114.547 9.42525 87.48 16.5559 65.732C19.0466 58.1373 21.3959 50.9733 23.0399 44.6533C26.7199 30.52 33.1919 19.568 42.2759 12.1027C51.4359 4.57599 63.0212 0.758643 76.7119 0.758643C83.6092 0.758643 89.8839 1.67466 94.9266 2.41066C96.7746 2.67999 98.6813 2.95864 100.032 3.09064C101.369 2.95997 103.204 2.69333 105.137 2.41066C110.18 1.67466 116.455 0.758643 123.352 0.758643C137.043 0.758643 148.629 4.57465 157.789 12.1027C166.872 19.568 173.343 30.5186 177.023 44.6533C178.671 50.9786 181.02 58.144 183.508 65.7306C190.64 87.4826 199.513 114.547 199.177 144.373C198.777 179.827 185.808 211.467 159.533 241.093C157.449 243.893 150.467 252.853 140.475 261.307C126.711 272.946 113.112 278.853 100.056 278.853" fill="#211D1D"/>
<path d="M157.008 53.472C146.659 13.72 113.473 25.9053 100.032 26.5613C86.592 25.9053 53.4053 13.72 43.0559 53.472C32.1799 95.24 -3.72937 158.28 56.5213 225.613C56.5213 225.613 74.3693 251.04 99.9293 255.146V255.186L100.032 255.16L100.136 255.186V255.146C125.695 251.04 143.543 225.613 143.543 225.613C203.795 158.28 167.884 95.24 157.008 53.472" fill="#F1471F"/>
<path d="M141.884 139.733C141.884 99.16 123.147 66.276 100.032 66.276C76.9186 66.276 58.1799 99.16 58.1799 139.733C58.1799 180.307 76.9186 213.2 100.032 213.2C123.147 213.2 141.884 180.307 141.884 139.733Z" fill="#F9B22F"/>
<path d="M104.285 120.16C104.285 117.293 101.959 114.96 99.0906 114.96C96.2213 114.96 93.8959 117.293 93.8959 120.16C93.8959 123.027 96.2213 125.36 99.0906 125.36C101.959 125.36 104.285 123.027 104.285 120.16Z" fill="#211D1D"/>
<path d="M103.395 81.868C103.395 78.9986 101.068 76.6733 98.1999 76.6733C95.3306 76.6733 93.0052 78.9986 93.0052 81.868C93.0052 84.7373 95.3306 87.0626 98.1999 87.0626C101.068 87.0626 103.395 84.7373 103.395 81.868Z" fill="#211D1D"/>
<path d="M104.285 155.773C104.285 152.907 101.959 150.587 99.0906 150.587C96.2213 150.587 93.8959 152.907 93.8959 155.773C93.8959 158.653 96.2213 160.973 99.0906 160.973C101.959 160.973 104.285 158.653 104.285 155.773Z" fill="#211D1D"/>
<path d="M104.285 195.56C104.285 192.693 101.959 190.36 99.0906 190.36C96.2213 190.36 93.8959 192.693 93.8959 195.56C93.8959 198.427 96.2213 200.747 99.0906 200.747C101.959 200.747 104.285 198.427 104.285 195.56Z" fill="#211D1D"/>
<path d="M85.0399 101.573C85.0399 98.6666 82.7146 96.32 79.8452 96.32C76.9759 96.32 74.6506 98.6666 74.6506 101.573C74.6506 104.48 76.9759 106.84 79.8452 106.84C82.7146 106.84 85.0399 104.48 85.0399 101.573Z" fill="#211D1D"/>
<path d="M79.1039 135.653C79.1039 132.747 76.7772 130.387 73.9079 130.387C71.0399 130.387 68.7145 132.747 68.7145 135.653C68.7145 138.56 71.0399 140.92 73.9079 140.92C76.7772 140.92 79.1039 138.56 79.1039 135.653Z" fill="#211D1D"/>
<path d="M83.5559 174.16C83.5559 171.253 81.2306 168.893 78.3612 168.893C75.4919 168.893 73.1666 171.253 73.1666 174.16C73.1666 177.067 75.4919 179.427 78.3612 179.427C81.2306 179.427 83.5559 177.067 83.5559 174.16Z" fill="#211D1D"/>
<path d="M112.992 101.573C112.992 98.6666 115.317 96.32 118.187 96.32C121.056 96.32 123.381 98.6666 123.381 101.573C123.381 104.48 121.056 106.84 118.187 106.84C115.317 106.84 112.992 104.48 112.992 101.573Z" fill="#211D1D"/>
<path d="M118.928 135.653C118.928 132.747 121.255 130.387 124.123 130.387C126.992 130.387 129.317 132.747 129.317 135.653C129.317 138.56 126.992 140.92 124.123 140.92C121.255 140.92 118.928 138.56 118.928 135.653Z" fill="#211D1D"/>
<path d="M114.476 174.16C114.476 171.253 116.801 168.893 119.671 168.893C122.54 168.893 124.865 171.253 124.865 174.16C124.865 177.067 122.54 179.427 119.671 179.427C116.801 179.427 114.476 177.067 114.476 174.16Z" fill="#211D1D"/>
</svg>
