<svg width="173" height="300" viewBox="0 0 173 300" fill="none" xmlns="http://www.w3.org/2000/svg">
<g id="Pineapple">
<path id="path336" d="M53.9653 123.105L78.7319 4.53597L119.323 123.743L96.6199 139.043L53.9653 123.105" fill="#2EAB48"/>
<path id="path338" d="M59.1479 120.251L96.0266 134.028L113.965 121.94L79.772 21.516L59.1479 120.251ZM96.6186 143.532C96.0893 143.532 95.5573 143.437 95.0479 143.248L52.3946 127.312C50.3186 126.535 49.1186 124.359 49.572 122.188L74.3373 3.61864C74.7519 1.63731 76.4386 0.178616 78.4586 0.0559493C80.4973 -0.065384 82.3306 1.17462 82.9813 3.08928L123.572 122.297C124.225 124.215 123.512 126.333 121.831 127.467L99.1279 142.764C98.3773 143.272 97.5013 143.532 96.6186 143.532Z" fill="#211D1D"/>
<path id="path340" d="M44.3466 87.832C44.3466 87.832 26.7066 41.3973 14.2786 36.1973C14.2786 36.1973 79.2239 56.256 100.872 121.636L80.8279 137.98L62.7866 128.693L44.3466 87.832" fill="#2EAB48"/>
<path id="path342" d="M66.2346 125.419L80.2693 132.644L95.6053 120.137C84.5279 89.3267 63.2719 69.5374 47.1452 58.2601C41.2692 54.1507 35.6346 50.8467 30.696 48.2534C33.4426 52.8427 35.9279 57.7214 38.0106 62C43.7226 73.7454 47.9626 84.7227 48.4933 86.1067L66.2346 125.419ZM80.8266 142.469C80.1253 142.469 79.4213 142.305 78.7719 141.972L60.732 132.684C59.8306 132.221 59.1133 131.465 58.696 130.54L40.2546 89.6787L40.1493 89.4267C33.1053 70.8921 19.8853 43.4094 12.5466 40.3387C10.3373 39.4147 9.24262 36.9174 10.06 34.6667C10.8746 32.4147 13.3186 31.2027 15.6039 31.908C16.2932 32.1214 32.7293 37.2827 52.0226 50.7147C69.8653 63.136 93.5626 85.2787 105.133 120.224C105.719 121.992 105.152 123.937 103.709 125.115L83.6639 141.459C82.8466 142.125 81.84 142.469 80.8266 142.469" fill="#211D1D"/>
<path id="path344" d="M48.7559 129.065C48.7559 129.065 39.1346 91.1747 4.65729 83.3747C4.65729 83.3747 54.3679 73.716 84.0346 119.407L61.9853 132.036L48.7559 129.065Z" fill="#2EAB48"/>
<path id="path346" d="M52.3053 125.261L61.2679 127.275L77.5719 117.933C61.5959 96.0453 40.5452 89.2826 25.2706 87.5399C42.5386 99.3653 50.0173 118.236 52.3053 125.261ZM61.9853 136.525C61.6573 136.525 61.3266 136.489 61.0012 136.417L47.7719 133.445C46.1226 133.075 44.8213 131.808 44.4053 130.169C44.3159 129.824 34.9719 94.836 3.66659 87.752C1.59592 87.284 0.135927 85.428 0.16926 83.3053C0.20126 81.1813 1.71723 79.3719 3.80123 78.9679C3.99856 78.9292 8.69859 78.032 15.9946 78.032C33.3719 78.032 65.8066 83.0893 87.7999 116.961C88.4719 117.997 88.6879 119.263 88.3973 120.463C88.1079 121.661 87.3373 122.688 86.2666 123.303L64.2172 135.932C63.5332 136.324 62.7626 136.525 61.9853 136.525Z" fill="#211D1D"/>
<path id="path348" d="M128.533 87.832C128.533 87.832 146.173 41.3973 158.601 36.1973C158.601 36.1973 93.6559 56.256 72.0079 121.636L92.0519 137.98L110.093 128.693L128.533 87.832" fill="#2EAB48"/>
<path id="path350" d="M77.2746 130.137L92.6106 142.644L106.645 135.419L124.387 96.1067C124.917 94.7227 129.157 83.7454 134.869 72C136.952 67.7214 139.437 62.8427 142.184 58.2534C137.244 60.8467 131.611 64.1507 125.735 68.2601C109.608 79.5374 88.3533 99.328 77.2746 130.137V130.137ZM92.0532 152.469C91.0399 152.469 90.0332 152.125 89.2146 151.459L69.1706 135.115C67.7279 133.937 67.1613 131.992 67.7466 130.224C79.3173 95.2787 103.016 73.136 120.857 60.7147C140.152 47.2827 156.587 42.1214 157.276 41.908C159.56 41.2027 162.004 42.4147 162.821 44.6667C163.637 46.9174 162.543 49.4147 160.333 50.3387C152.989 53.412 139.771 80.8934 132.731 99.4254L132.625 99.6787L114.184 140.54C113.767 141.465 113.049 142.221 112.148 142.684L94.1066 151.972C93.4586 152.305 92.7532 152.469 92.0532 152.469" fill="#211D1D"/>
<path id="path352" d="M124.124 139.065C124.124 139.065 133.745 101.175 168.223 93.3747C168.223 93.3747 118.512 83.716 88.8452 129.407L110.895 142.036L124.124 139.065Z" fill="#2EAB48"/>
<path id="path354" d="M95.3066 127.933L111.612 137.275L120.575 135.261C122.861 128.236 130.341 109.365 147.609 97.5399C132.335 99.2826 111.285 106.045 95.3066 127.933V127.933ZM110.895 146.525C110.117 146.525 109.348 146.324 108.663 145.932L86.6133 133.303C85.5427 132.689 84.772 131.661 84.4813 130.463C84.192 129.263 84.408 127.997 85.08 126.961C107.073 93.0893 139.508 88.032 156.885 88.032C164.18 88.032 168.881 88.9292 169.077 88.9679C171.163 89.3719 172.677 91.1813 172.711 93.3053C172.743 95.428 171.284 97.284 169.213 97.752C137.783 104.864 128.564 139.817 128.476 140.169C128.059 141.808 126.757 143.075 125.108 143.445L111.879 146.417C111.553 146.489 111.223 146.525 110.895 146.525Z" fill="#211D1D"/>
<path id="path356" d="M151.315 168.915C146.529 135.181 117.753 111.281 86.4399 111.281C55.1265 111.281 26.3506 135.181 21.5653 168.915L14.3412 219.839C7.33991 269.191 39.0212 295.189 86.4399 295.189C133.859 295.189 165.541 269.191 158.539 219.839L151.315 168.915" fill="#FABF0C"/>
<path id="path358" d="M86.4399 115.771C56.3386 115.771 30.3586 138.888 26.0093 169.545L18.7853 220.469C15.8653 241.048 19.7653 257.679 30.3733 269.899C42.1879 283.508 61.5759 290.701 86.4399 290.701C111.305 290.701 130.692 283.508 142.507 269.899C153.115 257.679 157.013 241.048 154.095 220.469L146.869 169.545C142.52 138.888 116.541 115.771 86.4399 115.771V115.771ZM86.4399 299.68C58.8959 299.68 37.164 291.417 23.5933 275.785C11.3773 261.715 6.64133 242.149 9.896 219.208L17.12 168.284C22.0933 133.228 51.8946 106.792 86.4399 106.792C120.985 106.792 150.785 133.228 155.759 168.284L162.984 219.208C166.239 242.149 161.501 261.715 149.287 275.785C135.716 291.417 113.984 299.68 86.4399 299.68" fill="#211D1D"/>
<path id="path360" d="M19.3159 188.341C18.6599 188.341 18.0025 188.091 17.5025 187.589C16.4999 186.588 16.4999 184.964 17.5025 183.963L91.2372 110.227C92.2385 109.224 93.8653 109.224 94.8653 110.227C95.8679 111.228 95.8679 112.852 94.8653 113.853L21.1292 187.589C20.6292 188.091 19.9719 188.341 19.3159 188.341" fill="#211D1D"/>
<path id="path362" d="M13.7506 238.673C13.0946 238.673 12.4372 238.423 11.9372 237.923C10.9346 236.921 10.9346 235.296 11.9372 234.295L123.497 122.735C124.499 121.732 126.124 121.732 127.125 122.735C128.128 123.736 128.128 125.361 127.125 126.361L15.5639 237.923C15.0639 238.423 14.4066 238.673 13.7506 238.673" fill="#211D1D"/>
<path id="path364" d="M24.8479 272.345C24.1919 272.345 23.5345 272.095 23.0345 271.593C22.0319 270.592 22.0319 268.967 23.0345 267.965L142.903 148.097C143.904 147.096 145.529 147.096 146.531 148.097C147.533 149.099 147.533 150.723 146.531 151.724L26.6626 271.593C26.1613 272.095 25.5052 272.345 24.8479 272.345Z" fill="#211D1D"/>
<path id="path366" d="M50.5773 291.385C49.92 291.385 49.264 291.135 48.7627 290.633C47.7613 289.632 47.7613 288.008 48.7627 287.005L151.805 183.963C152.807 182.96 154.432 182.96 155.433 183.963C156.436 184.964 156.436 186.588 155.433 187.589L52.3907 290.633C51.8893 291.135 51.2333 291.385 50.5773 291.385Z" fill="#211D1D"/>
<path id="path368" d="M87.9052 298.824C87.2479 298.824 86.5919 298.573 86.0906 298.073C85.0893 297.072 85.0893 295.447 86.0906 294.445L156.633 223.903C157.633 222.901 159.26 222.901 160.26 223.903C161.263 224.905 161.263 226.529 160.26 227.531L89.7186 298.073C89.2186 298.573 88.5612 298.824 87.9052 298.824" fill="#211D1D"/>
<path id="path370" d="M153.62 188.343C152.964 188.343 152.308 188.092 151.807 187.591L77.5012 113.285C76.4999 112.284 76.4999 110.66 77.5012 109.657C78.5026 108.656 80.128 108.656 81.1293 109.657L155.435 183.963C156.436 184.964 156.436 186.589 155.435 187.591C154.933 188.092 154.277 188.343 153.62 188.343Z" fill="#211D1D"/>
<path id="path372" d="M158.199 237.688C157.543 237.688 156.887 237.439 156.385 236.937L45.2959 125.847C44.2933 124.845 44.2933 123.221 45.2959 122.219C46.2959 121.217 47.9212 121.217 48.9226 122.219L160.012 233.309C161.015 234.311 161.015 235.936 160.012 236.937C159.512 237.439 158.855 237.688 158.199 237.688" fill="#211D1D"/>
<path id="path374" d="M147.729 271.987C147.073 271.987 146.416 271.736 145.916 271.236L25.6252 150.945C24.6226 149.944 24.6226 148.319 25.6252 147.317C26.6252 146.316 28.2519 146.316 29.2519 147.317L149.543 267.608C150.545 268.609 150.545 270.235 149.543 271.236C149.043 271.736 148.385 271.987 147.729 271.987" fill="#211D1D"/>
<path id="path376" d="M122.208 291.233C121.552 291.233 120.896 290.984 120.395 290.483L17.5586 187.647C16.5559 186.645 16.5559 185.021 17.5586 184.019C18.5586 183.017 20.1853 183.017 21.1853 184.019L124.021 286.855C125.024 287.856 125.024 289.481 124.021 290.483C123.521 290.984 122.864 291.233 122.208 291.233" fill="#211D1D"/>
<path id="path378" d="M83.5198 297.313C82.8625 297.313 82.2065 297.063 81.7052 296.563L11.6359 226.492C10.6332 225.491 10.6332 223.865 11.6359 222.864C12.6358 221.863 14.2625 221.863 15.2625 222.864L85.3332 292.935C86.3358 293.936 86.3358 295.561 85.3332 296.563C84.8332 297.063 84.1758 297.313 83.5198 297.313" fill="#211D1D"/>
</g>
</svg>
