<svg width="170" height="225" viewBox="0 0 170 225" fill="none" xmlns="http://www.w3.org/2000/svg">
<path d="M165.2 140.112C165.2 95.836 129.307 59.9441 85.0266 59.9441C40.7466 59.9441 4.85999 95.836 4.85999 140.112C4.85999 184.387 40.7466 220.279 85.0266 220.279C129.307 220.279 165.2 184.387 165.2 140.112Z" fill="#7B1D70"/>
<path d="M85.0266 64.4333C43.2933 64.4333 9.34925 98.3826 9.34925 140.112C9.34925 181.84 43.2933 215.789 85.0266 215.789C126.76 215.789 160.707 181.84 160.707 140.112C160.707 98.3826 126.76 64.4333 85.0266 64.4333ZM85.0266 224.768C38.3466 224.768 0.370605 186.792 0.370605 140.112C0.370605 93.4319 38.3466 55.456 85.0266 55.456C131.707 55.456 169.68 93.4319 169.68 140.112C169.68 186.792 131.707 224.768 85.0266 224.768Z" fill="#211D1D"/>
<path d="M30.64 175.348C29.08 175.348 27.56 174.529 26.7347 173.071C21.068 163.069 18.072 151.672 18.072 140.112C18.072 103.193 48.1067 73.1574 85.0267 73.1574C87.5067 73.1574 89.5201 75.1667 89.5201 77.6467C89.5201 80.1254 87.5067 82.136 85.0267 82.136C53.0534 82.136 27.0507 108.144 27.0507 140.112C27.0507 150.124 29.64 159.989 34.5466 168.645C35.7733 170.803 35.0134 173.543 32.8534 174.764C32.1601 175.16 31.4 175.348 30.64 175.348" fill="white"/>
<path d="M128.413 48.2574C122.12 48.2574 103.733 51.4107 103.493 50.5947C100.027 38.824 95.8 35.2641 82.4533 35.2641C69.0933 35.2641 65.4665 38.9867 60.3465 50.12C59.9999 50.884 42.5332 48.8934 36.4799 48.8934C22.3092 48.8934 10.8213 60.3814 10.8213 74.5547C10.8213 88.7267 22.3092 100.215 36.4799 100.215C42.5332 100.215 48.1066 98.1107 52.4933 94.6014C60.56 98.4974 70.9866 100.851 82.3999 100.851C94.0666 100.851 104.733 98.3854 112.867 94.3241C117.173 97.6187 122.573 99.5787 128.413 99.5787C142.587 99.5787 154.08 88.0894 154.08 73.9174C154.08 59.7454 142.587 48.2574 128.413 48.2574" fill="#81CC29"/>
<path d="M52.4934 90.1119C53.16 90.1119 53.8266 90.26 54.44 90.56C62.1866 94.3027 72.12 96.3627 82.4 96.3627C92.92 96.3627 103.04 94.2119 110.853 90.3066C112.387 89.5426 114.227 89.7173 115.587 90.756C119.307 93.5906 123.733 95.0893 128.413 95.0893C140.093 95.0893 149.587 85.592 149.587 73.9173C149.587 62.244 140.093 52.7467 128.413 52.7467C125.6 52.7467 119.44 53.528 114.48 54.1547C109.293 54.8147 106.013 55.2187 104.253 55.2187C100.573 55.2187 99.4934 52.8747 99.1867 51.8653C96.3334 42.188 94.0667 39.752 82.4534 39.752C71.2001 39.752 68.9867 42.072 64.4267 51.9946C63.1467 54.784 60.2133 54.784 58.9733 54.784C56.7333 54.784 52.6 54.4587 48.2267 54.1133C43.88 53.7707 38.9599 53.3827 36.4799 53.3827C24.8079 53.3827 15.3107 62.88 15.3107 74.5533C15.3107 86.228 24.8079 95.7253 36.4799 95.7253C41.3333 95.7253 45.8934 94.1253 49.6934 91.096C50.5067 90.4467 51.4934 90.1119 52.4934 90.1119ZM82.4 105.341C71.84 105.341 61.52 103.372 53.0133 99.764C48.1199 102.965 42.3466 104.704 36.4799 104.704C19.8573 104.704 6.33203 91.18 6.33203 74.5533C6.33203 57.9293 19.8573 44.4039 36.4799 44.4039C39.3066 44.4039 44.2 44.7893 48.9333 45.1627C52.0667 45.4107 55.2934 45.6653 57.4534 45.7627C62.6667 35.2293 67.9201 30.7746 82.4534 30.7746C96.2667 30.7746 102.587 34.5707 106.733 46.0467C108.6 45.852 111.067 45.5373 113.36 45.248C119.093 44.52 125.027 43.7679 128.413 43.7679C145.04 43.7679 158.56 57.2933 158.56 73.9173C158.56 90.5426 145.04 104.068 128.413 104.068C122.693 104.068 117.213 102.491 112.427 99.4827C103.8 103.272 93.24 105.341 82.4 105.341" fill="#211D1D"/>
<path d="M77.9599 49.3308L74.4266 9.34283C74.0399 4.91617 77.3198 1.01084 81.7465 0.620175C86.1732 0.229509 90.0799 3.50142 90.4666 7.92942C90.5066 8.39209 90.5066 8.89483 90.4666 9.34283L86.9332 49.3308C86.7199 51.8095 84.5333 53.6415 82.0533 53.4241C79.84 53.2281 78.1466 51.4668 77.9599 49.3308" fill="#211D1D"/>
<path d="M47.4934 183.501C47.4934 180.583 45.1333 178.217 42.2133 178.217C39.2933 178.217 36.9333 180.583 36.9333 183.501C36.9333 186.419 39.2933 188.784 42.2133 188.784C45.1333 188.784 47.4934 186.419 47.4934 183.501Z" fill="white"/>
<path d="M29.56 87.2854C29.0214 87.2854 28.476 87.0894 28.044 86.6907C22.324 81.4147 21.5561 75.98 21.9201 72.3507C22.5147 66.4267 26.4093 61.5747 30 59.3934C31.0667 58.7507 32.44 59.088 33.0934 60.148C33.7334 61.208 33.3867 62.5894 32.3333 63.2321C29.7733 64.7827 26.8241 68.4387 26.3867 72.7987C26.0067 76.5987 27.588 80.1627 31.0934 83.3907C32 84.2321 32.0533 85.6521 31.2133 86.5627C30.7733 87.0427 30.1734 87.2854 29.56 87.2854" fill="white"/>
</svg>
