<svg width="266" height="138" viewBox="0 0 266 138" fill="none" xmlns="http://www.w3.org/2000/svg">
<path d="M230.128 4.93465C230.128 58.5933 186.629 102.091 132.972 102.091C79.3132 102.091 35.8145 58.5933 35.8145 4.93465H4.81592C4.81592 75.7133 62.1932 133.091 132.972 133.091C203.751 133.091 261.128 75.7133 261.128 4.93465H230.128Z" fill="#81CC29"/>
<path d="M9.38532 9.42396C11.7547 75.544 66.284 128.601 132.972 128.601C199.66 128.601 254.188 75.544 256.559 9.42396H234.52C232.161 63.396 187.515 106.581 132.972 106.581C78.4293 106.581 33.7813 63.396 31.4226 9.42396H9.38532ZM132.972 137.58C59.8306 137.58 0.32666 78.0759 0.32666 4.93457C0.32666 2.45457 2.33598 0.445248 4.81598 0.445248H35.8146C38.2933 0.445248 40.3039 2.45457 40.3039 4.93457C40.3039 56.0319 81.8746 97.6026 132.972 97.6026C184.068 97.6026 225.64 56.0319 225.64 4.93457C225.64 2.45457 227.649 0.445248 230.128 0.445248H261.128C263.607 0.445248 265.617 2.45457 265.617 4.93457C265.617 78.0759 206.112 137.58 132.972 137.58" fill="#211D1D"/>
<path d="M35.8146 4.93465C35.8146 58.5933 79.3133 102.091 132.972 102.091C186.629 102.091 230.128 58.5933 230.128 4.93465H35.8146Z" fill="#EC1D27"/>
<path d="M40.4107 9.42401C42.7627 58.4427 83.38 97.6027 132.972 97.6027C182.563 97.6027 223.18 58.4427 225.532 9.42401H40.4107ZM132.972 106.581C76.924 106.581 31.3253 60.9826 31.3253 4.93463C31.3253 2.45463 33.3346 0.445303 35.8146 0.445303H230.128C232.608 0.445303 234.617 2.45463 234.617 4.93463C234.617 60.9826 189.02 106.581 132.972 106.581" fill="#211D1D"/>
<path d="M70.9786 32.568C73.0159 28.5293 73.2293 24.528 71.4546 23.6334C69.68 22.7374 66.5893 25.2867 64.552 29.3254C62.5133 33.364 62.3 37.3641 64.0746 38.2601C65.8493 39.1547 68.9399 36.6067 70.9786 32.568" fill="#211D1D"/>
<path d="M191.161 28.4587C189.123 24.4187 188.909 20.4187 190.684 19.524C192.459 18.628 195.549 21.1774 197.588 25.216C199.625 29.2547 199.839 33.2547 198.064 34.1507C196.289 35.0453 193.199 32.4973 191.161 28.4587" fill="#211D1D"/>
<path d="M93.2854 62.984C91.896 58.6773 89.2373 55.6827 87.3453 56.292C85.4533 56.9027 85.0454 60.8881 86.4334 65.1934C87.8227 69.4987 90.4813 72.4947 92.3733 71.884C94.2653 71.2747 94.6734 67.2893 93.2854 62.984" fill="#211D1D"/>
<path d="M173.769 57.9921C176.005 54.0601 176.417 50.0761 174.689 49.0934C172.961 48.1108 169.748 50.5014 167.512 54.4347C165.275 58.3667 164.863 62.3521 166.591 63.3334C168.319 64.3174 171.533 61.9254 173.769 57.9921Z" fill="#211D1D"/>
<path d="M131.776 40.0267C133.772 35.9667 133.944 31.9654 132.16 31.088C130.376 30.2107 127.312 32.7906 125.316 36.8506C123.32 40.9106 123.148 44.9133 124.932 45.7893C126.716 46.6667 129.78 44.0867 131.776 40.0267Z" fill="#211D1D"/>
<path d="M141.545 78.9266C138.835 75.3039 135.348 73.3333 133.756 74.5239C132.164 75.7146 133.071 79.6159 135.781 83.2386C138.491 86.8612 141.979 88.8319 143.569 87.6412C145.161 86.4506 144.255 82.5493 141.545 78.9266" fill="#211D1D"/>
<path d="M68.3413 104.049C67.8613 104.049 67.3746 103.915 66.9426 103.632C44.3346 88.8827 31.3026 66.8626 24.352 50.9866C16.84 33.8306 14.6693 20.308 14.58 19.7413C14.3613 18.3413 15.3173 17.0306 16.7173 16.8106C18.1173 16.5973 19.4293 17.548 19.6479 18.9467C19.7319 19.4787 28.4959 72.4253 69.7453 99.3346C70.9333 100.109 71.2666 101.699 70.4933 102.885C70.0013 103.639 69.18 104.049 68.3413 104.049" fill="white"/>
<path d="M79.6467 105.672C79.6467 104.117 78.3867 102.857 76.832 102.857C75.2774 102.857 74.0187 104.117 74.0187 105.672C74.0187 107.225 75.2774 108.485 76.832 108.485C78.3867 108.485 79.6467 107.225 79.6467 105.672Z" fill="white"/>
</svg>
