<svg width="194" height="276" viewBox="0 0 194 276" fill="none" xmlns="http://www.w3.org/2000/svg">
<g id="Banana">
<path id="path380" d="M34.1333 66.004C45.24 48.744 61.0133 21.288 55.6267 12.0013C48 -1.15735 78.1734 6.57864 81.4534 18.7893L73.6933 71.2226C73.5467 71.9146 73.3733 72.6973 73.2133 73.5533C62.5866 73.9053 49.0133 72.5667 34.1333 66.004Z" fill="#B9941C"/>
<path id="path382" d="M40.7999 63.8666C50.0132 67.2773 59.6265 69.04 69.4665 69.1133L76.8532 19.2253C74.9466 15.0533 66.2665 9.68664 59.4398 9.63464L59.5065 9.75062C62.7465 15.344 61.3598 24.2813 55.1465 37.88C51.7198 45.3706 46.9065 54.0946 40.7999 63.8666V63.8666ZM70.1065 78.0933C57.0532 78.0933 44.3332 75.408 32.3199 70.112C31.1199 69.5826 30.2132 68.5533 29.8398 67.296C29.4532 66.04 29.6532 64.68 30.3599 63.576C55.9066 23.86 52.2398 15.12 51.7465 14.2533C49.0931 9.67862 49.7999 6.51864 50.8665 4.67464C51.9199 2.84131 54.2398 0.654625 59.3465 0.654625C68.0531 0.654625 83.0532 7.42263 85.7866 17.6226C85.9466 18.216 85.9866 18.8373 85.8932 19.4466L78.1332 71.8813L78.0798 72.176C77.9331 72.8413 77.7731 73.5933 77.6131 74.4173C77.2131 76.4693 75.4532 77.9706 73.3599 78.04C72.2799 78.076 71.1865 78.0933 70.1065 78.0933" fill="#211D1D"/>
<path id="path384" d="M24.212 80.7C24.212 80.7 28.5934 74.6226 34.1334 66.004C49.0134 72.5666 62.5866 73.9053 73.2133 73.5533C70.1333 89.312 54.4533 176.307 148.413 209.76C162.08 214.613 194.893 227.72 188.053 252.133C188.053 252.133 160.947 303.586 67.08 237.867C0.506649 191.253 -9.42532 130.547 24.212 80.7Z" fill="#F9DD05"/>
<path id="path386" d="M27.8959 83.2667C11.5693 107.48 6.22259 133.827 12.4293 159.44C19.0519 186.76 38.84 212.613 69.6533 234.186C100.56 255.84 127.173 266.813 148.747 266.813C159.653 266.813 168.893 264 176.24 258.44C180.787 255.013 183.173 251.52 183.867 250.386C187.453 236.24 175.013 223.987 146.92 213.987C124.587 206.04 106.533 194.453 93.2399 179.573C82.2799 167.28 74.4932 152.68 70.0799 136.173C66.7199 123.533 63.7466 103.493 67.8399 78.0667C56.8533 77.8053 46.12 75.6307 35.8666 71.588C31.5466 78.172 28.3213 82.6747 27.8959 83.2667V83.2667ZM148.747 275.786C125.293 275.786 96.9599 264.267 64.5066 241.547C31.8799 218.693 10.8493 191.04 3.704 161.547C-3.11867 133.4 2.68669 104.573 20.492 78.1893L20.5692 78.076C20.6132 78.016 24.9547 71.9813 30.36 63.576C31.56 61.716 33.9199 61.0067 35.9466 61.896C47.7066 67.0827 60.1733 69.4987 73.0666 69.0667C74.44 69.0093 75.7466 69.6013 76.6266 70.6427C77.52 71.684 77.8799 73.0733 77.6132 74.416C71.8132 104.027 67.2667 176.093 149.92 205.52C154.44 207.133 168.173 212.027 178.653 220.053C187.307 226.68 196.72 237.84 192.373 253.346C192.293 253.653 192.173 253.946 192.027 254.227C191.56 255.107 180.293 275.786 148.747 275.786" fill="#211D1D"/>
<path id="path388" d="M122.347 250.52C121.813 250.52 121.253 250.427 120.72 250.214C76.1067 232.827 46.76 207.627 33.5067 175.32C16.1053 132.88 33.0266 94.1293 33.7466 92.5013C34.76 90.2387 37.4266 89.2253 39.68 90.236C41.9466 91.248 42.96 93.9027 41.9466 96.1653C41.72 96.676 25.9134 133.293 41.8667 172.027C54.1734 201.92 81.8001 225.413 123.987 241.853C126.293 242.76 127.44 245.36 126.533 247.667C125.84 249.44 124.147 250.52 122.347 250.52" fill="white"/>
<path id="path390" d="M135.32 250.867C135.32 248.013 137.64 245.707 140.48 245.707C143.333 245.707 145.64 248.013 145.64 250.867C145.64 253.707 143.333 256.013 140.48 256.013C137.64 256.013 135.32 253.707 135.32 250.867Z" fill="white"/>
</g>
</svg>
