<svg width="236" height="232" viewBox="0 0 236 232" fill="none" xmlns="http://www.w3.org/2000/svg">
<path d="M113.649 178.239C113.649 158.939 102.557 143.273 87.8491 132.592C74.1718 122.66 69.8838 134.192 59.4838 134.192C48.3038 134.192 44.7249 123.105 29.2867 133.759C14.9862 143.628 5.3186 159.709 5.3186 178.239C5.3186 207.824 29.5695 227.344 59.4838 227.344C89.3985 227.344 113.649 207.824 113.649 178.239Z" fill="#EC1D27"/>
<path d="M41.2363 133.623C38.6468 133.623 35.5723 134.876 31.8363 137.455C18.0431 146.972 9.80825 162.22 9.80825 178.239C9.80825 204.092 30.6999 222.856 59.4839 222.856C88.2692 222.856 109.161 204.092 109.161 178.239C109.161 156.816 94.1559 142.72 85.2119 136.224C82.2665 134.085 79.7865 133.047 77.6279 133.047C75.4772 133.047 73.4172 134.083 71.0332 135.281C67.8652 136.875 64.2732 138.68 59.4839 138.68C54.6132 138.68 51.0332 137.057 47.8759 135.625C45.4097 134.507 43.4619 133.623 41.2363 133.623V133.623ZM59.4839 231.833C43.6149 231.833 28.9624 226.66 18.2269 217.264C7.00825 207.445 0.82959 193.587 0.82959 178.239C0.82959 159.268 10.5144 141.26 26.7368 130.064C32.0952 126.367 36.7025 124.644 41.2363 124.644C45.4025 124.644 48.6865 126.135 51.5839 127.448C54.2505 128.657 56.5532 129.703 59.4839 129.703C62.1439 129.703 64.3932 128.571 66.9999 127.261C69.9745 125.764 73.3479 124.068 77.6279 124.068C81.7479 124.068 85.9545 125.668 90.4879 128.96C108.319 141.909 118.139 159.411 118.139 178.239C118.139 193.587 111.96 207.445 100.741 217.264C90.0065 226.66 75.3545 231.833 59.4839 231.833" fill="#211D1D"/>
<path d="M23.5305 196.556C21.8004 196.556 20.1509 195.549 19.4144 193.861C17.2972 189.012 16.2239 183.728 16.2239 178.156C16.2239 164.159 23.3624 150.875 35.3196 142.624C37.3597 141.216 40.1561 141.728 41.5639 143.769C42.9723 145.809 42.4597 148.605 40.4187 150.013C30.8905 156.589 25.2025 167.109 25.2025 178.156C25.2025 182.485 26.0233 186.56 27.6425 190.269C28.6348 192.541 27.5972 195.187 25.3249 196.18C24.74 196.435 24.1305 196.556 23.5305 196.556Z" fill="white"/>
<path d="M231.213 177.008C231.213 157.707 220.121 142.041 205.413 131.361C191.736 121.428 187.448 132.96 177.048 132.96C165.868 132.96 162.289 121.875 146.851 132.528C132.551 142.397 122.883 158.479 122.883 177.008C122.883 206.593 147.133 226.113 177.048 226.113C206.963 226.113 231.213 206.593 231.213 177.008Z" fill="#EC1D27"/>
<path d="M158.8 132.392C156.211 132.392 153.136 133.645 149.4 136.223C135.607 145.741 127.372 160.988 127.372 177.008C127.372 202.86 148.264 221.624 177.048 221.624C205.833 221.624 226.724 202.86 226.724 177.008C226.724 155.584 211.72 141.489 202.776 134.995C199.831 132.855 197.349 131.816 195.192 131.816C193.041 131.816 190.981 132.851 188.597 134.051C185.428 135.644 181.837 137.451 177.048 137.451C172.176 137.451 168.597 135.827 165.44 134.395C162.973 133.276 161.025 132.392 158.8 132.392V132.392ZM177.048 230.603C161.179 230.603 146.527 225.428 135.791 216.033C124.572 206.216 118.393 192.356 118.393 177.008C118.393 158.037 128.079 140.028 144.301 128.833C149.659 125.136 154.267 123.415 158.8 123.415C162.967 123.415 166.251 124.903 169.148 126.217C171.815 127.427 174.117 128.472 177.048 128.472C179.707 128.472 181.957 127.34 184.563 126.029C187.539 124.533 190.911 122.837 195.192 122.837C199.312 122.837 203.519 124.437 208.052 127.729C225.883 140.679 235.703 158.179 235.703 177.008C235.703 192.356 229.524 206.216 218.305 216.033C207.569 225.428 192.917 230.603 177.048 230.603" fill="#211D1D"/>
<path d="M181.344 156.011C179.272 156.011 177.409 154.568 176.959 152.459C176.881 152.095 169.052 115.689 157.54 79.7999C150.825 58.8693 144.203 42.2373 137.857 30.3693C128.353 12.5946 121.897 9.93993 118.895 9.93993C115.893 9.93993 109.437 12.5946 99.9332 30.3693C93.5865 42.2373 86.9652 58.8693 80.2505 79.7999C68.7385 115.689 60.9092 152.095 60.8305 152.459C60.3132 154.884 57.9265 156.427 55.5025 155.909C53.0772 155.392 51.5332 153.007 52.0505 150.581C52.1292 150.215 60.0399 113.425 71.6825 77.1146C78.5639 55.6559 85.4012 38.512 92.0039 26.1573C101.065 9.20264 109.861 0.96128 118.895 0.96128C127.929 0.96128 136.725 9.20264 145.787 26.1573C152.389 38.512 159.225 55.6559 166.107 77.1146C177.751 113.425 185.66 150.215 185.739 150.581C186.257 153.007 184.712 155.392 182.288 155.909C181.972 155.977 181.655 156.011 181.344 156.011" fill="#211D1D"/>
<path d="M141.659 194.043C139.928 194.043 138.279 193.036 137.543 191.348C135.425 186.5 134.352 181.215 134.352 175.644C134.352 161.645 141.491 148.361 153.448 140.111C155.488 138.703 158.284 139.216 159.692 141.256C161.1 143.296 160.588 146.092 158.547 147.5C148.877 154.173 143.331 164.432 143.331 175.644C143.331 179.972 144.152 184.047 145.771 187.756C146.763 190.028 145.725 192.673 143.453 193.667C142.868 193.921 142.259 194.043 141.659 194.043" fill="white"/>
</svg>
