<svg width="204" height="229" viewBox="0 0 204 229" fill="none" xmlns="http://www.w3.org/2000/svg">
<path d="M199.463 137.493C199.463 89.7733 155.947 51.0799 102.267 51.0799C48.5867 51.0799 5.06934 89.7733 5.06934 137.493C5.06934 185.216 48.5867 223.903 102.267 223.903C155.947 223.903 199.463 185.216 199.463 137.493Z" fill="#FABF0C"/>
<path d="M102.267 55.5734C51.1466 55.5734 9.55873 92.3201 9.55873 137.493C9.55873 182.664 51.1466 219.413 102.267 219.413C153.385 219.413 194.973 182.664 194.973 137.493C194.973 92.3201 153.385 55.5734 102.267 55.5734V55.5734ZM102.267 228.392C46.1959 228.392 0.5802 187.615 0.5802 137.493C0.5802 87.3734 46.1959 46.6 102.267 46.6C158.336 46.6 203.952 87.3734 203.952 137.493C203.952 187.615 158.336 228.392 102.267 228.392Z" fill="#211D1D"/>
<path d="M33.176 175.147C31.66 175.147 30.1812 174.373 29.3364 172.987C22.7516 162.174 19.2708 149.893 19.2708 137.493C19.2708 116.96 28.8926 97.1601 45.6693 83.1467C47.5733 81.5601 50.4039 81.8268 51.9933 83.7202C53.5813 85.6268 53.3253 88.4534 51.4226 90.0401C36.4786 102.52 28.2494 119.373 28.2494 137.493C28.2494 148.253 31.2773 158.907 37.0053 168.32C38.2946 170.44 37.6226 173.2 35.504 174.493C34.776 174.933 33.9706 175.147 33.176 175.147" fill="white"/>
<path d="M93.6413 73.7869C91.5506 73.7869 89.6786 72.3202 89.2466 70.1869C81.2293 30.7069 103.548 2.86679 104.503 1.70679C106.072 -0.213208 108.901 -0.493182 110.82 1.06682C112.736 2.64015 113.02 5.46687 111.455 7.38687C111.185 7.7202 90.9119 33.2668 98.0453 68.4134C98.5386 70.8401 96.9693 73.2135 94.5399 73.6935C94.2386 73.7602 93.9373 73.7869 93.6413 73.7869" fill="#211D1D"/>
<path d="M117.748 37.92C128.564 36.5067 135.811 23.7066 135.811 23.7066C135.811 23.7066 125.524 13.1999 114.708 14.6133C103.893 16.0133 95.8066 22.3733 96.6466 28.8133C97.4853 35.2533 106.933 39.32 117.748 37.92" fill="#81CC29"/>
<path d="M116.74 18.9601C116.248 18.9601 115.76 19.0002 115.289 19.0535C110.912 19.6268 106.828 21.2001 104.083 23.3601C101.996 25.0001 100.908 26.7734 101.099 28.2401C101.441 30.8667 106.281 33.7067 113.503 33.7067H113.504C114.707 33.7067 115.94 33.6268 117.168 33.4668C122.7 32.7468 127.336 27.7867 129.859 24.4801C126.873 22.1601 121.843 18.9601 116.74 18.9601V18.9601ZM113.504 42.6801H113.501C101.977 42.6801 93.2146 37.2134 92.1946 29.4001C91.5853 24.7201 93.8946 19.9468 98.5319 16.2935C102.569 13.1201 108.108 10.9468 114.128 10.1601C114.983 10.0401 115.861 9.98682 116.74 9.98682C128.528 9.98682 138.596 20.1335 139.019 20.5601C140.419 22.0001 140.703 24.1735 139.717 25.9202C139.376 26.5202 131.217 40.6801 118.329 42.3601C116.717 42.5735 115.093 42.6801 113.504 42.6801" fill="#211D1D"/>
<path d="M71.5532 37.8267C61.4332 34.9067 56.3839 21.6267 56.3839 21.6267C56.3839 21.6267 67.7426 13.0934 77.8612 16.0267C87.9826 18.9467 94.7732 26.2 93.0319 32.2267C91.2892 38.2534 81.6732 40.76 71.5532 37.8267Z" fill="#81CC29"/>
<path d="M62.1493 23.3067C64.2506 27.08 67.9919 32.1201 72.7999 33.5201C75.1999 34.2134 77.5786 34.56 79.8706 34.56C84.3959 34.56 88.1186 33.0533 88.7186 30.9733C89.0933 29.68 88.3079 27.84 86.6173 26.0267C84.3306 23.5867 80.6839 21.5067 76.6146 20.3334C75.6173 20.04 74.5266 19.8934 73.3759 19.8934C69.1773 19.8934 64.9146 21.7733 62.1493 23.3067ZM79.8706 43.5466C76.7346 43.5466 73.5159 43.0666 70.3053 42.1466C58.1733 38.6266 52.4266 23.84 52.1879 23.2133C51.4773 21.3466 52.0879 19.24 53.6879 18.04C54.0746 17.7467 63.2773 10.9201 73.3759 10.9201C75.3719 10.9201 77.3013 11.1867 79.1093 11.7067C84.7693 13.3467 89.7639 16.2534 93.1719 19.8934C97.1039 24.0934 98.6253 29.04 97.3439 33.48C95.5466 39.68 88.8519 43.5466 79.8706 43.5466Z" fill="#211D1D"/>
<path d="M51.3959 183.044C51.3959 179.889 48.8399 177.333 45.6853 177.333C42.5306 177.333 39.9733 179.889 39.9733 183.044C39.9733 186.199 42.5306 188.756 45.6853 188.756C48.8399 188.756 51.3959 186.199 51.3959 183.044Z" fill="white"/>
</svg>
