<svg width="173" height="247" viewBox="0 0 173 247" fill="none" xmlns="http://www.w3.org/2000/svg">
<path d="M155.507 126.907C149.133 115.627 146.48 104.84 144.347 92.0801C144.347 92.0801 133 42.3334 88.24 41.0668V41.0401C87.9466 41.0401 87.6666 41.0535 87.3733 41.0535H87.0534V41.0401L86.84 41.0535L86.6267 41.0401V41.0535H86.3066C86.0133 41.0535 85.7333 41.0401 85.44 41.0401V41.0668C40.68 42.3334 29.3293 92.0801 29.3293 92.0801C27.1986 104.84 24.5453 115.627 18.1733 126.907C10.7333 139.653 5.42266 151.92 5.42266 166.627C4.89599 197.519 21.356 224.983 52.16 237.243C62.16 241.067 74.1866 242.719 86.3066 242.444L86.6267 242.445V242.447L86.84 242.445L87.0534 242.447V242.445L87.3733 242.444C99.5066 242.719 111.52 241.067 121.52 237.243C152.32 224.983 168.787 197.519 168.253 166.627C168.253 151.92 162.947 139.653 155.507 126.907" fill="#FAF783"/>
<path d="M87.3732 237.955L87.4666 237.956C88.2933 237.975 89.1199 237.984 89.9465 237.984C101.107 237.984 111.48 236.277 119.92 233.049C147.867 221.923 164.293 197.112 163.773 166.707V166.627C163.773 151.973 157.933 139.96 151.627 129.16C145.013 117.453 142.173 106.227 139.947 92.9733C139.653 91.7733 136.747 80.4934 129.2 69.3201C118.88 54.0267 105.053 46.0401 88.12 45.5601L87.7866 45.5334L87.7066 45.5466H87.4533H87.2799H86.9732L86.8799 45.5334H86.8132L86.7066 45.5466H86.3999H86.2266H85.9732L85.8933 45.5334L85.5599 45.5601C68.5333 46.0401 54.6666 54.1066 44.3333 69.5466C36.8559 80.7066 34.0266 91.76 33.732 92.9733C31.5106 106.227 28.6706 117.453 22.0813 129.107C15.7453 139.96 9.9106 151.973 9.9106 166.627V166.707C9.39194 197.112 25.808 221.923 53.8266 233.071C62.2133 236.277 72.5733 237.984 83.7333 237.984C84.5599 237.984 85.3865 237.975 86.2132 237.956H86.4132H87.2666L87.3732 237.955ZM89.9465 246.963C89.0799 246.963 88.1999 246.953 87.3333 246.933L87.0533 246.935H86.9866L86.9465 242.445L86.9066 246.935H86.7732H86.7066H86.5732H86.4666L86.3465 246.933C85.4799 246.953 84.6133 246.963 83.7333 246.963C71.4933 246.963 60.0133 245.052 50.5599 241.436C34.7853 235.159 21.9105 224.764 13.2692 211.353C4.92786 198.407 0.661259 182.933 0.933259 166.587C0.942592 149.827 7.36122 136.52 14.2959 124.64C20.2532 114.093 22.7732 104.08 24.9012 91.3466L24.9519 91.08C25.0759 90.5466 28.0746 77.68 36.8679 64.5466C48.6399 46.9733 65.2 37.32 84.7866 36.6C85.24 36.5334 85.7066 36.5601 86.1732 36.5601L86.3066 36.5733L86.6666 36.5601H86.8399H87.0132C87.1332 36.5601 87.2532 36.56 87.3732 36.5733L87.5066 36.5601C87.9732 36.5601 88.4532 36.5334 88.9066 36.6C108.48 37.32 125.04 46.9733 136.813 64.5466C145.6 77.68 148.6 90.5466 148.733 91.08L148.773 91.3466C150.907 104.08 153.427 114.093 159.413 124.693C166.32 136.52 172.733 149.827 172.747 166.587C173.013 182.933 168.747 198.407 160.413 211.353C151.773 224.764 138.893 235.159 123.187 241.413C113.667 245.052 102.2 246.963 89.9465 246.963" fill="#211D1D"/>
<path d="M33.3345 138.573C32.5745 138.573 31.8065 138.373 31.1012 137.973C28.9519 136.733 28.2105 133.987 29.4465 131.84L29.5465 131.667C36.4732 119.413 39.4266 107.813 41.7332 94.1999C41.7466 94.0799 41.7732 93.9466 41.7999 93.8266C42.4266 91.3866 45.9999 78.6266 55.0533 67.6933C56.6266 65.7733 59.4532 65.5066 61.3732 67.0933C63.2799 68.68 63.5465 71.5065 61.9732 73.4132C54.3332 82.6399 51.1998 93.3865 50.5465 95.8799C48.0932 110.347 44.8932 122.747 37.3465 136.12L37.2306 136.32C36.4 137.76 34.8892 138.573 33.3345 138.573" fill="white"/>
<path d="M86.1599 61.96H85.8665C83.4132 61.8 81.5599 59.7066 81.6665 57.2666C81.6665 57.0666 81.6399 56.4533 81.6266 55.92C81.4399 51.64 81.0265 41.6266 83.0398 30.9066C85.6932 16.8399 91.5599 6.91989 100.467 1.41322C102.587 0.119887 105.347 0.77322 106.653 2.87989C107.947 4.98655 107.293 7.75999 105.187 9.05332C91.8533 17.28 89.8932 38.8799 90.5999 55.5465C90.6399 56.6932 90.6665 57.28 90.6398 57.76C90.4798 60.1333 88.5066 61.96 86.1599 61.96" fill="#211D1D"/>
<path d="M32.5226 150.48C32.5226 147.253 29.9119 144.653 26.6933 144.653C23.4733 144.653 20.8625 147.253 20.8625 150.48C20.8625 153.693 23.4733 156.307 26.6933 156.307C29.9119 156.307 32.5226 153.693 32.5226 150.48Z" fill="white"/>
</svg>
