<svg width="231" height="260" viewBox="0 0 231 260" fill="none" xmlns="http://www.w3.org/2000/svg">
<path d="M116.307 35.3346C53.3747 35.3346 -3.16203 57.236 8.44478 126.373C12.8 152.333 38.2306 178.36 56.4986 204.52C70.12 224.04 79.2773 242.333 97.3133 250.627C102.733 253.12 111.383 255.414 116.271 255.414C121.163 255.414 129.825 253.12 135.247 250.627C153.283 242.333 162.439 224.04 176.06 204.52C194.328 178.36 219.759 152.333 224.115 126.373C235.721 57.236 182.489 35.3346 116.307 35.3346" fill="#EC1D27"/>
<path d="M116.307 39.824C61.4253 39.824 36.2218 55.996 24.7421 69.564C12.9583 83.4933 8.96447 102.36 12.8723 125.627C15.9234 143.813 30.7291 163.053 45.0466 181.653C50.1506 188.293 55.4293 195.147 60.1799 201.947C62.8079 205.72 65.2626 209.427 67.6373 213.013C77.3573 227.693 85.7519 240.373 99.1879 246.547C104.244 248.88 112.225 250.92 116.272 250.92L116.271 255.414L116.273 250.92C120.327 250.92 128.315 248.88 133.368 246.547C146.807 240.373 155.201 227.693 164.921 213.013C167.296 209.427 169.751 205.72 172.379 201.947C177.129 195.147 182.408 188.293 187.513 181.653C201.831 163.053 216.636 143.813 219.687 125.627C223.693 101.76 219.781 82.64 208.057 68.784C199.676 58.8773 187.128 51.396 170.76 46.5467C155.707 42.0853 137.385 39.824 116.307 39.824V39.824ZM116.273 259.893V255.414L116.272 259.893H116.271C110.284 259.893 100.975 257.253 95.4333 254.707C79.6773 247.453 70.1933 233.133 60.1506 217.973C57.8066 214.427 55.3826 210.76 52.8173 207.093C48.1879 200.453 42.9734 193.68 37.9311 187.133C22.9411 167.653 7.4406 147.52 4.01767 127.12C-0.347398 101.12 4.31926 79.8 17.8879 63.764C40.9087 36.556 84.1146 30.8453 116.307 30.8453C163.692 30.8453 196.868 41.6586 214.912 62.9853C228.42 78.9466 233.005 100.533 228.541 127.12C225.119 147.52 209.619 167.653 194.628 187.133C189.585 193.68 184.372 200.453 179.74 207.093C177.176 210.76 174.752 214.427 172.408 217.973C162.367 233.133 152.881 247.453 137.121 254.707C131.583 257.253 122.268 259.893 116.273 259.893" fill="#211D1D"/>
<path d="M215.459 52.2427C189.789 16.424 141.469 4.55731 113.28 4.55864C85.1 4.55998 36.812 16.424 11.1417 52.2427C-12.0724 84.64 33.138 69.8386 73.988 62.9266C73.988 62.9266 68.1586 77.3066 73.7173 83.1866C76.816 86.4666 83.4533 87.1066 96.6119 81.1466C96.6119 81.1466 100.885 99.7333 113.02 100.6V100.64L113.3 100.613L113.581 100.64V100.6C125.716 99.7333 129.988 81.1466 129.988 81.1466C166.753 97.8 152.613 62.9266 152.613 62.9266C193.463 69.8386 238.673 84.64 215.459 52.2427" fill="#2EAB48"/>
<path d="M96.6119 76.6627C97.2946 76.6627 97.9773 76.8187 98.6039 77.128C99.8106 77.72 100.685 78.8267 100.987 80.1467C101.021 80.2933 104.805 95.4667 113.3 96.1067C121.795 95.4667 125.58 80.2933 125.616 80.1333C125.921 78.8267 126.799 77.72 128.004 77.1293C129.208 76.536 130.617 76.508 131.841 77.0627C139.331 80.4533 143.696 81.1733 146.039 81.1733C148.948 81.1733 149.636 80.1467 149.895 79.76C151.885 76.82 150.209 68.9787 148.451 64.608C147.844 63.1 148.099 61.38 149.119 60.1133C150.137 58.8467 151.76 58.232 153.363 58.5C160.484 59.7053 167.701 61.14 174.68 62.528C188.5 65.2773 201.552 67.8733 210.045 67.8733H210.048C216.305 67.8733 217.201 66.4693 217.208 66.456C217.221 66.432 218.349 63.9813 211.811 54.8573C200.905 39.6413 184.256 27.2907 163.663 19.1427C147.448 12.7267 129.084 9.04668 113.28 9.04801C97.4813 9.04801 79.1266 12.728 62.9213 19.1427C42.3396 27.2907 25.6958 39.64 14.7906 54.8573C8.25302 63.98 9.38168 66.4307 9.39368 66.4547C9.40102 66.468 10.2984 67.8733 16.5562 67.8733C25.0483 67.8733 38.0999 65.2773 51.9173 62.5293C58.8973 61.1413 66.116 59.7053 73.2386 58.5C74.8426 58.2293 76.4693 58.8467 77.488 60.116C78.5066 61.384 78.7599 63.1053 78.1479 64.6133C76.1706 69.5293 74.6626 77.6533 76.9813 80.1067C77.6439 80.8133 78.8493 81.1733 80.5613 81.1733C82.9053 81.1733 87.2693 80.4533 94.7599 77.0627C95.3493 76.796 95.9813 76.6627 96.6119 76.6627V76.6627ZM113.02 105.12C112.676 105.12 112.335 105.08 112.005 105C105.736 104.293 100.325 100.053 96.3213 92.6933C95.2706 90.76 94.4439 88.84 93.8186 87.1867C88.6319 89.1733 84.2653 90.1467 80.5613 90.1467C76.2826 90.1467 72.8813 88.84 70.4533 86.28C66.0693 81.64 66.4546 74.2093 67.6213 68.62C62.944 69.4906 58.2546 70.424 53.6693 71.3347C39.4057 74.172 25.9327 76.852 16.5562 76.852C13.6093 76.852 4.64168 76.852 1.40728 70.556C-0.190183 67.4453 -1.29738 61.892 7.49262 49.628C35.527 10.5093 87.1786 0.0706658 113.28 0.0693325C139.395 0.0679992 191.069 10.504 219.108 49.6267C227.9 61.8947 226.792 67.4467 225.195 70.5573C221.98 76.816 213.097 76.852 210.097 76.852H210.044C200.668 76.852 187.193 74.172 172.929 71.3347C168.344 70.4227 163.656 69.4906 158.98 68.62C160.031 73.648 160.453 80.16 157.344 84.7733C155.695 87.2267 152.395 90.1467 146.039 90.1467C142.335 90.1467 137.968 89.1733 132.78 87.1867C130.352 93.5733 124.879 103.88 114.555 105.013C114.199 105.093 113.829 105.133 113.463 105.12H113.3H113.139H113.02" fill="#211D1D"/>
<path d="M44.1747 117.147C45.352 120.867 41.8943 127.333 41.8943 127.333C41.8943 127.333 35.3369 124.04 34.1599 120.333C32.9839 116.627 34.2713 112.907 37.0369 112.027C39.8027 111.147 42.9984 113.44 44.1747 117.147" fill="white"/>
<path d="M184.465 115.053C183.289 118.76 186.747 125.24 186.747 125.24C186.747 125.24 193.304 121.947 194.48 118.24C195.657 114.52 194.369 110.8 191.604 109.933C188.837 109.053 185.643 111.347 184.465 115.053" fill="white"/>
<path d="M83.9359 144.413C85.1133 148.12 81.6559 154.587 81.6559 154.587C81.6559 154.587 75.0986 151.293 73.9213 147.587C72.7453 143.88 74.0333 140.16 76.7986 139.28C79.5639 138.4 82.7599 140.693 83.9359 144.413Z" fill="white"/>
<path d="M84.8986 186.733C86.0746 190.44 82.6173 196.92 82.6173 196.92C82.6173 196.92 76.06 193.627 74.884 189.907C73.7066 186.2 74.9946 182.48 77.7599 181.613C80.5266 180.733 83.7213 183.027 84.8986 186.733" fill="white"/>
<path d="M123.28 221.307C123.277 225.2 118.021 230.32 118.021 230.32C118.021 230.32 112.771 225.2 112.773 221.307C112.776 217.414 115.131 214.253 118.032 214.253C120.933 214.267 123.283 217.414 123.28 221.307Z" fill="white"/>
<path d="M121.677 172.893C121.675 176.787 116.417 181.907 116.417 181.907C116.417 181.907 111.168 176.773 111.171 172.88C111.173 168.987 113.527 165.84 116.428 165.84C119.329 165.84 121.68 169 121.677 172.893Z" fill="white"/>
<path d="M120.715 123.56C120.712 127.453 115.456 132.573 115.456 132.573C115.456 132.573 110.205 127.453 110.208 123.56C110.211 119.667 112.565 116.507 115.467 116.52C118.368 116.52 120.717 119.667 120.715 123.56Z" fill="white"/>
<path d="M150.688 143.773C149.511 147.48 152.968 153.947 152.968 153.947C152.968 153.947 159.525 150.653 160.703 146.947C161.879 143.24 160.591 139.52 157.825 138.64C155.06 137.76 151.864 140.053 150.688 143.773Z" fill="white"/>
<path d="M149.725 186.093C148.549 189.8 152.007 196.28 152.007 196.28C152.007 196.28 158.564 192.987 159.74 189.267C160.917 185.56 159.629 181.84 156.864 180.973C154.097 180.093 150.903 182.387 149.725 186.093" fill="white"/>
<path d="M26.5688 55.9253C25.9093 55.9253 25.2505 55.6733 24.7494 55.1693C23.751 54.164 23.7557 52.54 24.7598 51.5413C61.4293 15.0867 98.7493 14.668 100.32 14.668C101.736 14.668 102.885 15.8173 102.885 17.2333C102.885 18.648 101.737 19.7973 100.323 19.7987C99.9586 19.8 63.4626 20.3 28.377 55.18C27.8765 55.6773 27.2224 55.9253 26.5688 55.9253" fill="white"/>
</svg>
