<svg width="268" height="280" viewBox="0 0 268 280" fill="none" xmlns="http://www.w3.org/2000/svg">
<path d="M240.676 150.253L262.777 140.467L240.716 130.707L260.86 117.04L237.508 111.427L255.081 94.3199L231.157 93.0386L245.621 72.9866L221.844 76.0906L232.775 53.7146L209.871 61.0919L216.924 37.0693L195.592 48.4826L198.549 23.548L179.435 38.6706L178.209 13.5746L161.893 31.9453L156.527 7.45727L143.503 28.5106L134.164 5.36528L124.836 28.4746L111.787 7.37729L106.436 31.8293L90.0785 13.4319L88.8732 38.4826L69.7145 23.3333L72.6719 48.2133L51.3092 36.8013L58.3425 60.7706L35.3986 53.3919L46.3079 75.7146L22.4999 72.6293L36.9399 92.636L12.9666 93.9199L30.5132 111L7.12788 116.627L27.2345 130.253L5.13452 140.04L27.2092 149.8L7.05724 163.467L30.4132 169.08L12.8305 186.187L36.7639 187.453L22.2892 207.507L46.0679 204.413L35.1425 226.786L58.0412 219.413L51.0026 243.426L72.3199 232.013L69.3732 256.946L88.4865 241.826L89.7012 266.933L106.019 248.56L111.385 273.04L124.409 251.986L133.753 275.12L143.081 252.026L156.129 273.12L161.472 248.667L177.824 267.067L179.039 242.026L198.192 257.173L195.236 232.28L216.608 243.707L209.573 219.733L232.513 227.107L221.599 204.773L245.416 207.867L230.977 187.867L254.945 186.573L237.399 169.507L260.795 163.88L240.676 150.253" fill="#E3AD11"/>
<path d="M124.408 247.493C124.535 247.493 124.663 247.507 124.791 247.507C126.477 247.653 127.939 248.733 128.572 250.307L133.753 263.133L138.919 250.346C139.552 248.773 141.013 247.693 142.699 247.56C144.383 247.414 146.008 248.227 146.897 249.667L154.111 261.32L157.085 247.707C157.447 246.053 158.701 244.747 160.336 244.32C161.968 243.893 163.704 244.427 164.827 245.68L173.872 255.867L174.555 241.8C174.636 240.12 175.649 238.627 177.181 237.933C178.712 237.24 180.504 237.453 181.824 238.493L192.452 246.907L190.777 232.813C190.58 231.146 191.323 229.52 192.704 228.573C194.087 227.627 195.876 227.533 197.351 228.32L209.288 234.707L205.267 221C204.799 219.4 205.249 217.68 206.44 216.52C207.631 215.36 209.365 214.947 210.948 215.453L223.849 219.613L217.565 206.747C216.84 205.267 216.988 203.507 217.952 202.16C218.915 200.813 220.535 200.107 222.175 200.333L235.701 202.08L227.337 190.493C226.376 189.16 226.219 187.413 226.927 185.933C227.635 184.453 229.096 183.467 230.736 183.387L244.465 182.64L234.267 172.72C233.096 171.587 232.636 169.893 233.069 168.32C233.501 166.747 234.759 165.52 236.348 165.147L249.857 161.893L238.159 153.973C236.808 153.053 236.06 151.48 236.205 149.853C236.351 148.227 237.368 146.8 238.859 146.147L251.687 140.467L238.899 134.8C237.408 134.147 236.392 132.733 236.245 131.107C236.099 129.48 236.847 127.907 238.196 126.987L249.928 119.027L236.46 115.787C234.871 115.413 233.613 114.187 233.18 112.613C232.747 111.04 233.205 109.347 234.377 108.213L244.604 98.2533L230.917 97.52C229.279 97.44 227.817 96.4533 227.108 94.9733C226.399 93.4933 226.556 91.744 227.517 90.412L235.905 78.7827L222.425 80.5427C220.781 80.756 219.163 80.0533 218.199 78.7107C217.235 77.368 217.085 75.6053 217.811 74.1213L224.111 61.2213L211.247 65.3653C209.663 65.8733 207.928 65.468 206.737 64.3067C205.545 63.1467 205.093 61.4226 205.563 59.8266L209.6 46.08L197.709 52.44C196.235 53.228 194.443 53.1333 193.061 52.1906C191.68 51.2466 190.937 49.6146 191.133 47.9533L192.811 33.812L182.221 42.1906C180.901 43.2346 179.111 43.4546 177.579 42.7573C176.048 42.0626 175.033 40.5693 174.952 38.8893L174.263 24.7787L165.249 34.9266C164.128 36.1893 162.393 36.7146 160.759 36.2893C159.125 35.8626 157.869 34.556 157.508 32.9067L154.513 19.244L147.32 30.872C146.431 32.3107 144.801 33.12 143.121 32.984C141.435 32.8386 139.973 31.76 139.34 30.1906L134.163 17.3613L128.999 30.1546C128.365 31.724 126.903 32.804 125.217 32.948C123.536 33.0893 121.908 32.276 121.017 30.836L113.803 19.1693L110.821 32.7893C110.46 34.4386 109.204 35.7453 107.571 36.172C105.936 36.6 104.203 36.0747 103.081 34.812L94.0333 24.6373L93.3573 38.6986C93.2773 40.3786 92.264 41.8733 90.732 42.5693C89.2013 43.264 87.4079 43.048 86.0893 42.004L75.4559 33.5946L77.1293 47.684C77.3266 49.344 76.5839 50.9773 75.2039 51.92C73.8226 52.8626 72.0319 52.9613 70.5559 52.1733L58.6279 45.8013L62.6506 59.5067C63.1186 61.1013 62.6666 62.824 61.4759 63.9853C60.2866 65.1466 58.552 65.552 56.9693 65.044L44.0613 60.8933L50.3413 73.7427C51.068 75.2267 50.9186 76.9906 49.9559 78.332C48.9933 79.6733 47.368 80.3786 45.732 80.1666L32.2119 78.4147L40.58 90.0093C41.5413 91.3413 41.6986 93.092 40.9893 94.5733C40.2813 96.0533 38.82 97.0266 37.18 97.12L23.4453 97.8533L33.6453 107.787C34.8159 108.92 35.2746 110.613 34.8426 112.187C34.4093 113.76 33.1533 114.973 31.5626 115.36L18.06 118.613L29.7533 126.533C31.1039 127.453 31.852 129.027 31.7053 130.653C31.56 132.28 30.544 133.693 29.052 134.36L16.2306 140.04L29.0253 145.693C30.5173 146.347 31.5346 147.76 31.68 149.387C31.8266 151.013 31.08 152.6 29.7293 153.507L17.988 161.467L31.4626 164.707C33.0533 165.093 34.3093 166.307 34.7426 167.893C35.1746 169.467 34.716 171.147 33.544 172.293L23.316 182.253L37.0026 182.973C38.6426 183.053 40.1053 184.04 40.8133 185.52C41.5226 187 41.3653 188.747 40.4039 190.08L32.0066 201.72L45.488 199.96C47.128 199.747 48.7493 200.453 49.7146 201.787C50.6773 203.133 50.8266 204.893 50.1013 206.387L43.8039 219.28L56.6666 215.133C58.2506 214.627 59.9826 215.04 61.1746 216.2C62.3653 217.36 62.8173 219.08 62.3493 220.68L58.3226 234.414L70.2012 228.053C71.6772 227.267 73.468 227.36 74.8493 228.307C76.232 229.24 76.9746 230.88 76.7786 232.547L75.1066 246.68L85.7012 238.307C87.0212 237.253 88.8119 237.04 90.3453 237.733C91.8759 238.427 92.8893 239.92 92.9706 241.613L93.6533 255.72L102.663 245.573C103.784 244.32 105.519 243.786 107.152 244.214C108.785 244.64 110.041 245.946 110.404 247.6L113.397 261.253L120.592 249.626C121.413 248.293 122.863 247.493 124.408 247.493V247.493ZM133.753 279.613C131.923 279.613 130.276 278.493 129.591 276.8L123.565 261.88L115.204 275.4C114.241 276.96 112.429 277.773 110.631 277.467C108.828 277.16 107.392 275.786 107 274L103.521 258.133L93.0573 269.907C91.8453 271.28 89.9279 271.773 88.2093 271.16C86.4879 270.56 85.3053 268.973 85.2173 267.146L84.4253 250.76L72.1586 260.467C70.7333 261.6 68.7693 261.76 67.1839 260.867C65.5973 259.973 64.7013 258.226 64.9146 256.426L66.852 240.026L53.1213 247.386C51.5266 248.24 49.576 248.053 48.172 246.907C46.768 245.773 46.1866 243.893 46.6946 242.16L51.3493 226.28L36.5186 231.053C34.8053 231.613 32.928 231.08 31.7493 229.72C30.572 228.36 30.3199 226.427 31.1093 224.813L38.3706 209.947L22.8693 211.96C21.0933 212.187 19.3493 211.347 18.4333 209.8C17.5173 208.267 17.6013 206.333 18.6493 204.88L28.3066 191.507L12.5933 190.667C10.812 190.573 9.25595 189.44 8.62795 187.76C8.00128 186.093 8.42128 184.213 9.69995 182.973L21.4466 171.533L6.00796 167.827C4.27863 167.413 2.95859 166.013 2.63993 164.267C2.32259 162.52 3.06526 160.747 4.53726 159.747L17.9853 150.627L3.31994 144.147C1.6946 143.427 0.645264 141.813 0.645264 140.04C0.645264 138.267 1.69194 136.653 3.31727 135.933L18.0146 129.427L4.60796 120.333C3.13729 119.347 2.39329 117.573 2.71063 115.813C3.02796 114.067 4.34929 112.68 6.07729 112.253L21.5506 108.533L9.83459 97.1333C8.55725 95.8933 8.13728 94 8.76395 92.336C9.39061 90.6666 10.9466 89.5266 12.7266 89.432L28.4853 88.592L18.8613 75.2573C17.8133 73.8053 17.728 71.8693 18.644 70.332C19.56 68.7946 21.3013 67.948 23.0773 68.1773L38.6119 70.1906L31.3653 55.3626C30.5746 53.7466 30.8266 51.8133 32.0039 50.4533C33.1826 49.092 35.0599 48.568 36.7733 49.1173L51.6479 53.9027L47.0013 38.0653C46.4919 36.3306 47.0733 34.46 48.4759 33.3186C49.8799 32.1786 51.832 31.9907 53.424 32.8427L67.1986 40.2L65.2573 23.8626C65.0426 22.0573 65.9373 20.3013 67.524 19.4147C69.1093 18.528 71.0746 18.684 72.4999 19.812L84.8093 29.5453L85.5946 13.2173C85.6813 11.3946 86.8639 9.80532 88.5839 9.19865C90.3013 8.59065 92.2199 9.08533 93.4333 10.4493L103.935 22.26L107.403 6.41729C107.792 4.63062 109.228 3.25999 111.032 2.95199C112.833 2.64665 114.644 3.45998 115.605 5.01598L123.991 18.5747L130.001 3.68395C130.687 1.98795 132.333 0.876009 134.164 0.876009H134.165C135.996 0.876009 137.643 1.98799 138.327 3.68532L144.349 18.6093L152.708 5.096C153.671 3.54133 155.479 2.72397 157.283 3.0333C159.084 3.3413 160.52 4.71063 160.912 6.4973L164.391 22.3733L174.853 10.5933C176.065 9.22931 177.983 8.73466 179.701 9.33999C181.423 9.94666 182.604 11.5346 182.693 13.356L183.493 29.7347L195.763 20.0266C197.188 18.9 199.153 18.7426 200.739 19.628C202.325 20.5146 203.22 22.2707 203.007 24.076L201.063 40.464L214.807 33.112C216.401 32.2587 218.353 32.4453 219.756 33.5866C221.16 34.728 221.741 36.6 221.232 38.3346L216.568 54.2186L231.397 49.4413C233.112 48.892 234.988 49.4133 236.167 50.7747C237.345 52.1347 237.597 54.0666 236.808 55.684L229.543 70.5586L245.04 68.536C246.817 68.3106 248.56 69.1506 249.477 70.688C250.395 72.2253 250.311 74.1613 249.263 75.6133L239.611 88.9946L255.321 89.8346C257.101 89.9293 258.656 91.0693 259.284 92.7373C259.911 94.4133 259.491 96.2933 258.212 97.5333L246.475 108.96L261.908 112.667C263.637 113.08 264.957 114.48 265.276 116.227C265.595 117.973 264.851 119.747 263.38 120.747L249.935 129.867L264.595 136.36C266.219 137.08 267.267 138.693 267.267 140.467C267.267 142.24 266.219 143.853 264.595 144.573L249.9 151.08L263.312 160.16C264.784 161.16 265.529 162.933 265.211 164.68C264.893 166.427 263.572 167.827 261.844 168.24L246.364 171.973L258.076 183.36C259.353 184.6 259.775 186.493 259.148 188.16C258.521 189.827 256.967 190.96 255.187 191.067L239.432 191.907L249.056 205.24C250.104 206.693 250.189 208.627 249.273 210.16C248.356 211.693 246.615 212.547 244.84 212.32L229.295 210.307L236.403 224.853C236.792 225.507 237.015 226.28 237.015 227.107C237.015 229.573 235.035 231.573 232.581 231.6C232.091 231.613 231.612 231.533 231.139 231.386L216.268 226.6L220.819 242.107C221.007 242.6 221.109 243.133 221.109 243.707C221.109 246.173 219.101 248.186 216.624 248.186H216.607C215.884 248.186 215.157 248.013 214.492 247.667L200.708 240.293L202.609 256.293C202.665 256.573 202.693 256.867 202.693 257.173C202.693 259.653 200.688 261.653 198.211 261.653C197.196 261.653 196.223 261.333 195.407 260.693L183.099 250.96L182.308 267.28C182.219 269.107 181.037 270.693 179.317 271.293C177.599 271.907 175.68 271.414 174.468 270.04L163.975 258.24L160.515 274.08C160.124 275.867 158.689 277.24 156.887 277.547C155.089 277.853 153.273 277.04 152.312 275.48L143.925 261.92L137.915 276.8C137.229 278.493 135.583 279.613 133.753 279.613" fill="#211D1D"/>
<path d="M214.001 140.24C214.001 93.8666 178.164 56.2653 133.956 56.2653C89.7479 56.2653 53.9106 93.8666 53.9106 140.24C53.9106 186.627 89.7479 224.227 133.956 224.227C178.164 224.227 214.001 186.627 214.001 140.24" fill="#E4C41B"/>
<path d="M129.383 140.24V140.227L128.997 86.1986C128.997 71.78 121.921 63.368 105.685 72.58C105.685 72.58 66.5893 88.5546 66.5893 140.24C66.5893 195.493 105.685 207.907 105.685 207.907C121.921 217.12 128.997 208.707 128.997 194.293L129.383 140.267V140.24" fill="#CFB015"/>
<path d="M139.084 140.24V140.227L139.469 86.1986C139.469 71.78 146.545 63.368 162.78 72.58C162.78 72.58 201.877 88.5546 201.877 140.24C201.877 195.493 162.78 207.907 162.78 207.907C146.545 217.12 139.469 208.707 139.469 194.293L139.084 140.267V140.24" fill="#CFB015"/>
<path d="M43.972 132.213L43.7706 132.2C42.7146 132.093 41.9466 131.147 42.056 130.08C45.88 93.192 63.4853 72.3853 77.58 61.428C92.8786 49.536 107.107 46.44 107.704 46.3147C108.74 46.0947 109.764 46.76 109.984 47.8013C110.203 48.84 109.537 49.86 108.499 50.08C108.36 50.1093 94.4093 53.1693 79.7987 64.5773C66.356 75.0747 49.5586 95.0267 45.884 130.48C45.7813 131.467 44.9453 132.213 43.972 132.213" fill="white"/>
</svg>
